<svg width="26" height="31" viewBox="0 0 26 31" fill="none" xmlns="http://www.w3.org/2000/svg">
<path d="M7.66675 6.45804C7.12008 6.45804 6.66675 5.9701 6.66675 5.3817V1.07634C6.66675 0.487941 7.12008 0 7.66675 0C8.21341 0 8.66675 0.487941 8.66675 1.07634V5.3817C8.66675 5.9701 8.21341 6.45804 7.66675 6.45804Z" fill="#2D9CDB"/>
<path d="M18.3333 6.45804C17.7866 6.45804 17.3333 5.9701 17.3333 5.3817V1.07634C17.3333 0.487941 17.7866 0 18.3333 0C18.8799 0 19.3333 0.487941 19.3333 1.07634V5.3817C19.3333 5.9701 18.8799 6.45804 18.3333 6.45804Z" fill="#2D9CDB"/>
<path d="M17 30.8549H9C1.50667 30.8549 0 27.0518 0 20.9095V12.0548C0 5.25232 2.13333 2.48254 7.61333 2.15247H18.3333H18.3867C23.8667 2.48254 26 5.25232 26 12.0548V20.9095C26 27.0518 24.4933 30.8549 17 30.8549ZM7.66667 4.30515C3.93333 4.53476 2 5.79767 2 12.0548V20.9095C2 26.406 2.97333 28.7022 9 28.7022H17C23.0267 28.7022 24 26.406 24 20.9095V12.0548C24 5.81202 22.08 4.53476 18.3067 4.30515H7.66667Z" fill="#2D9CDB"/>
<path d="M24.6666 24.5408H1.33325C0.786585 24.5408 0.333252 24.0529 0.333252 23.4645C0.333252 22.8761 0.786585 22.3881 1.33325 22.3881H24.6666C25.2133 22.3881 25.6666 22.8761 25.6666 23.4645C25.6666 24.0529 25.2133 24.5408 24.6666 24.5408Z" fill="#2D9CDB"/>
<path d="M13.0001 10.0458C11.3601 10.0458 9.97341 11.0073 9.97341 12.873C9.97341 13.7627 10.3601 14.4372 10.9467 14.8678C10.1334 15.3844 9.66675 16.2168 9.66675 17.1927C9.66675 18.9722 10.9334 20.0773 13.0001 20.0773C15.0534 20.0773 16.3334 18.9722 16.3334 17.1927C16.3334 16.2168 15.8667 15.3701 15.0401 14.8678C15.6401 14.4229 16.0134 13.7627 16.0134 12.873C16.0134 11.0073 14.6401 10.0458 13.0001 10.0458ZM13.0001 14.1215C12.3067 14.1215 11.8001 13.6766 11.8001 12.9734C11.8001 12.2559 12.3067 11.8397 13.0001 11.8397C13.6934 11.8397 14.2001 12.2559 14.2001 12.9734C14.2001 13.6766 13.6934 14.1215 13.0001 14.1215ZM13.0001 18.2977C12.1201 18.2977 11.4801 17.8241 11.4801 16.9631C11.4801 16.102 12.1201 15.6427 13.0001 15.6427C13.8801 15.6427 14.5201 16.1163 14.5201 16.9631C14.5201 17.8241 13.8801 18.2977 13.0001 18.2977Z" fill="#2D9CDB"/>
</svg>
