<svg width="80" height="80" viewBox="0 0 80 80" fill="none" xmlns="http://www.w3.org/2000/svg">
<path fill-rule="evenodd" clip-rule="evenodd" d="M46.6667 21C41.5523 21 37.6667 24.8856 37.6667 30V42H31L31 48.3333H37.6667V72.3333H45.6667V48H53.9613C53.9664 47.9986 53.9729 47.9966 53.9806 47.994C54.0044 47.9861 54.0305 47.9755 54.056 47.9633L55.3296 41.9137C55.325 41.8611 55.3163 41.8119 55.3046 41.7681C55.2927 41.7234 55.2792 41.69 55.2676 41.6667H45.6667V31C45.6667 30.5125 45.7892 29.9632 46.2096 29.5429C46.6299 29.1225 47.1792 29 47.6667 29L55.6667 29L55.6667 21H46.6667ZM35.6667 30C35.6667 23.781 40.4477 19 46.6667 19H55.6667C56.1541 19 56.7034 19.1225 57.1238 19.5429C57.5441 19.9632 57.6667 20.5125 57.6667 21V29C57.6667 29.4875 57.5441 30.0368 57.1238 30.4571C56.7034 30.8775 56.1541 31 55.6667 31H47.6667V39.6667H55.3333C56.0546 39.6667 56.5951 40.0482 56.9154 40.5286C57.2159 40.9795 57.3333 41.5183 57.3333 42V42.1041L55.9921 48.4748C55.9532 48.8223 55.7781 49.081 55.6463 49.2331C55.4886 49.415 55.3023 49.5515 55.1395 49.6492C54.8426 49.8273 54.4126 50 54 50H47.6667V74.3333H35.6667V50.3333H31C30.5125 50.3333 29.9632 50.2108 29.5429 49.7904C29.1225 49.3701 29 48.8208 29 48.3333V42C29 41.5125 29.1225 40.9632 29.5429 40.5429C29.9632 40.1225 30.5125 40 31 40H35.6667V30Z" fill="#F40E8A"/>
<path fill-rule="evenodd" clip-rule="evenodd" d="M13.144 13.1438C9.81295 16.4749 8.16669 21.8144 8.16669 29.9998V49.9998C8.16669 58.1852 9.81295 63.5248 13.144 66.8558C16.4751 70.1869 21.8146 71.8332 30 71.8332H50C58.1854 71.8332 63.525 70.1869 66.856 66.8558C70.1871 63.5248 71.8334 58.1852 71.8334 49.9998V29.9998C71.8334 21.8144 70.1871 16.4749 66.856 13.1438C63.525 9.81277 58.1854 8.1665 50 8.1665H30C21.8146 8.1665 16.4751 9.81277 13.144 13.1438ZM11.0227 11.0225C15.1916 6.85357 21.5187 5.1665 30 5.1665H50C58.4813 5.1665 64.8084 6.85357 68.9773 11.0225C73.1463 15.1914 74.8334 21.5186 74.8334 29.9998V49.9998C74.8334 58.4811 73.1463 64.8082 68.9773 68.9772C64.8084 73.1461 58.4813 74.8332 50 74.8332H30C21.5187 74.8332 15.1916 73.1461 11.0227 68.9772C6.85376 64.8082 5.16669 58.4811 5.16669 49.9998V29.9998C5.16669 21.5186 6.85376 15.1914 11.0227 11.0225Z" fill="#FFB6B6" stroke="url(#paint0_linear_262_1395)" stroke-width="3" stroke-linecap="round" stroke-linejoin="round"/>
<defs>
<linearGradient id="paint0_linear_262_1395" x1="5.16669" y1="74.8332" x2="70.9964" y2="74.8332" gradientUnits="userSpaceOnUse">
<stop stop-color="#D807FA" stop-opacity="0.76"/>
<stop offset="1" stop-color="#FF0CBB"/>
</linearGradient>
</defs>
</svg>
