<svg width="50" height="50" viewBox="0 0 50 50" fill="none" xmlns="http://www.w3.org/2000/svg">
<path fill-rule="evenodd" clip-rule="evenodd" d="M2.66663 25C2.66663 12.6653 12.6653 2.66663 25 2.66663C37.3346 2.66663 47.3333 12.6653 47.3333 25C47.3333 37.3346 37.3346 47.3333 25 47.3333C12.6653 47.3333 2.66663 37.3346 2.66663 25ZM25 5.66663C14.3221 5.66663 5.66663 14.3221 5.66663 25C5.66663 35.6778 14.3221 44.3333 25 44.3333C35.6778 44.3333 44.3333 35.6778 44.3333 25C44.3333 14.3221 35.6778 5.66663 25 5.66663Z" fill="white"/>
<path fill-rule="evenodd" clip-rule="evenodd" d="M30.775 4.82722C31.5608 4.56491 32.4105 4.98929 32.6728 5.77509C36.8381 18.2533 36.8381 31.7468 32.6728 44.225C32.4105 45.0108 31.5608 45.4352 30.775 45.1729C29.9892 44.9106 29.5648 44.0609 29.8271 43.2751C33.7867 31.4134 33.7867 18.5867 29.8271 6.72499C29.5648 5.93919 29.9892 5.08953 30.775 4.82722ZM15.1666 6.25004C15.1666 5.42161 15.8382 4.75004 16.6666 4.75004H18.7499C19.2322 4.75004 19.6851 4.98193 19.967 5.37324C20.2489 5.76454 20.3255 6.26753 20.1728 6.72499C16.2132 18.5867 16.2132 31.4134 20.1728 43.2751C20.3255 43.7326 20.2489 44.2355 19.967 44.6268C19.6851 45.0182 19.2322 45.25 18.7499 45.25H16.6666C15.8382 45.25 15.1666 44.5785 15.1666 43.75C15.1666 42.9216 15.8382 42.25 16.6666 42.25H16.7051C13.3691 30.9926 13.3691 19.0075 16.7051 7.75004H16.6666C15.8382 7.75004 15.1666 7.07847 15.1666 6.25004Z" fill="white"/>
<path fill-rule="evenodd" clip-rule="evenodd" d="M43.2751 20.1728C31.4134 16.2132 18.5867 16.2132 6.72499 20.1728C5.93919 20.4351 5.08953 20.0107 4.82722 19.2249C4.56491 18.4391 4.98929 17.5894 5.77509 17.3271C18.2533 13.1618 31.7468 13.1618 44.225 17.3271C45.0108 17.5894 45.4352 18.4391 45.1729 19.2249C44.9106 20.0107 44.0609 20.4351 43.2751 20.1728ZM5.37324 30.0329C5.76454 29.751 6.26753 29.6744 6.72499 29.8271C18.5867 33.7867 31.4134 33.7867 43.2751 29.8271C43.7326 29.6744 44.2355 29.751 44.6268 30.0329C45.0182 30.3148 45.25 30.7677 45.25 31.2499V33.3333C45.25 34.1617 44.5785 34.8333 43.75 34.8333C42.9216 34.8333 42.25 34.1617 42.25 33.3333V33.2948C30.9926 36.6308 19.0075 36.6308 7.75004 33.2948V33.3333C7.75004 34.1617 7.07847 34.8333 6.25004 34.8333C5.42161 34.8333 4.75004 34.1617 4.75004 33.3333V31.2499C4.75004 30.7677 4.98193 30.3148 5.37324 30.0329Z" fill="white"/>
</svg>
