<svg width="80" height="80" viewBox="0 0 80 80" fill="none" xmlns="http://www.w3.org/2000/svg">
<path fill-rule="evenodd" clip-rule="evenodd" d="M11.0227 11.0225C15.1916 6.85357 21.5187 5.1665 30 5.1665H50C58.4813 5.1665 64.8084 6.85357 68.9773 11.0225C73.1463 15.1914 74.8334 21.5186 74.8334 29.9998V49.9998C74.8334 58.4811 73.1463 64.8082 68.9773 68.9772C64.8084 73.1461 58.4813 74.8332 50 74.8332H30C21.5187 74.8332 15.1916 73.1461 11.0227 68.9772C6.85376 64.8082 5.16669 58.4811 5.16669 49.9998V29.9998C5.16669 21.5186 6.85376 15.1914 11.0227 11.0225ZM13.144 13.1438C9.81295 16.4749 8.16669 21.8144 8.16669 29.9998V49.9998C8.16669 58.1852 9.81295 63.5248 13.144 66.8558C16.4751 70.1869 21.8146 71.8332 30 71.8332H50C58.1854 71.8332 63.525 70.1869 66.856 66.8558C70.1871 63.5248 71.8334 58.1852 71.8334 49.9998V29.9998C71.8334 21.8144 70.1871 16.4749 66.856 13.1438C63.525 9.81277 58.1854 8.1665 50 8.1665H30C21.8146 8.1665 16.4751 9.81277 13.144 13.1438Z" fill="#FFB6B6" stroke="url(#paint0_linear_262_1398)" stroke-width="3" stroke-linecap="round" stroke-linejoin="round"/>
<path fill-rule="evenodd" clip-rule="evenodd" d="M30.6898 30.6899C33.159 28.2207 36.508 26.8335 40 26.8335C41.7291 26.8335 43.4413 27.1741 45.0387 27.8357C46.6362 28.4974 48.0876 29.4673 49.3103 30.6899C50.5329 31.9126 51.5028 33.364 52.1645 34.9615C52.8261 36.559 53.1667 38.2711 53.1667 40.0002C53.1667 41.7292 52.8261 43.4414 52.1645 45.0388C51.5028 46.6363 50.5329 48.0878 49.3103 49.3104C48.0876 50.533 46.6362 51.5029 45.0387 52.1646C43.4413 52.8263 41.7291 53.1668 40 53.1668C36.508 53.1668 33.159 51.7796 30.6898 49.3104C28.2206 46.8412 26.8334 43.4922 26.8334 40.0002C26.8334 36.5081 28.2206 33.1592 30.6898 30.6899ZM40 29.8335C37.3037 29.8335 34.7177 30.9046 32.8111 32.8112C30.9045 34.7179 29.8334 37.3038 29.8334 40.0002C29.8334 42.6965 30.9045 45.2825 32.8111 47.1891C34.7177 49.0957 37.3037 50.1668 40 50.1668C41.3351 50.1668 42.6572 49.9039 43.8907 49.3929C45.1241 48.882 46.2449 48.1331 47.189 47.1891C48.133 46.245 48.8819 45.1243 49.3928 43.8908C49.9037 42.6573 50.1667 41.3353 50.1667 40.0002C50.1667 38.6651 49.9037 37.343 49.3928 36.1095C48.8819 34.8761 48.133 33.7553 47.189 32.8112C46.2449 31.8672 45.1241 31.1183 43.8907 30.6074C42.6572 30.0965 41.3351 29.8335 40 29.8335Z" fill="#F40E8A"/>
<path fill-rule="evenodd" clip-rule="evenodd" d="M57.7866 23.3335C57.7866 22.7812 58.2343 22.3335 58.7866 22.3335H58.8266C59.3789 22.3335 59.8266 22.7812 59.8266 23.3335C59.8266 23.8858 59.3789 24.3335 58.8266 24.3335H58.7866C58.2343 24.3335 57.7866 23.8858 57.7866 23.3335Z" fill="#6D3207"/>
<defs>
<linearGradient id="paint0_linear_262_1398" x1="5.16669" y1="74.8332" x2="70.9964" y2="74.8332" gradientUnits="userSpaceOnUse">
<stop stop-color="#D807FA" stop-opacity="0.76"/>
<stop offset="1" stop-color="#FF0CBB"/>
</linearGradient>
</defs>
</svg>
