<svg width="80" height="80" viewBox="0 0 80 80" fill="none" xmlns="http://www.w3.org/2000/svg">
<path d="M40.0001 44.7666C41.3658 44.7666 42.7182 44.4975 43.98 43.9749C45.2418 43.4523 46.3883 42.6862 47.354 41.7205C48.3197 40.7547 49.0858 39.6082 49.6084 38.3465C50.1311 37.0847 50.4001 35.7323 50.4001 34.3666C50.4001 33.0008 50.1311 31.6484 49.6084 30.3866C49.0858 29.1249 48.3197 27.9784 47.354 27.0126C46.3883 26.0469 45.2418 25.2809 43.98 24.7582C42.7182 24.2356 41.3658 23.9666 40.0001 23.9666C37.2418 23.9666 34.5966 25.0623 32.6462 27.0126C30.6958 28.963 29.6001 31.6083 29.6001 34.3666C29.6001 37.1248 30.6958 39.7701 32.6462 41.7205C34.5966 43.6708 37.2418 44.7666 40.0001 44.7666Z" stroke="black" stroke-width="4"/>
<path d="M12.0668 28.3001C18.6334 -0.566577 61.4001 -0.533243 67.9334 28.3334C71.7668 45.2668 61.2334 59.6001 52.0001 68.4668C48.7737 71.5785 44.4659 73.3174 39.9834 73.3174C35.5009 73.3174 31.1932 71.5785 27.9668 68.4668C18.7668 59.6001 8.23342 45.2334 12.0668 28.3001Z" stroke="black" stroke-width="4"/>
</svg>
