<svg width="22" height="29" viewBox="0 0 22 29" fill="none" xmlns="http://www.w3.org/2000/svg">
<path d="M10.9978 17.5706C8.4998 17.5706 6.45923 15.332 6.45923 12.5629C6.45923 9.79382 8.4998 7.56818 10.9978 7.56818C13.4957 7.56818 15.5363 9.80676 15.5363 12.5758C15.5363 15.345 13.4957 17.5706 10.9978 17.5706ZM10.9978 9.50915C9.47322 9.50915 8.21834 10.8808 8.21834 12.5758C8.21834 14.2709 9.46149 15.6426 10.9978 15.6426C12.5341 15.6426 13.7772 14.2709 13.7772 12.5758C13.7772 10.8808 12.5223 9.50915 10.9978 9.50915Z" fill="#E908B7"/>
<path d="M10.9964 28.6861C9.26073 28.6861 7.51333 27.9615 6.15295 26.5251C2.69337 22.8502 -1.12977 16.9885 0.312701 10.0139C1.61444 3.68636 6.62205 0.852539 10.9964 0.852539H11.0081C15.3824 0.852539 20.39 3.68636 21.6918 10.0269C23.1225 17.0014 19.2994 22.8502 15.8398 26.5251C14.4794 27.9615 12.732 28.6861 10.9964 28.6861ZM10.9964 2.79351C7.5837 2.79351 3.19764 4.79918 2.03663 10.4409C0.77007 16.5356 4.24138 21.7892 7.38433 25.1147C9.41318 27.2756 12.5913 27.2756 14.6202 25.1147C17.7514 21.7892 21.2227 16.5356 19.9796 10.4409C18.8068 4.79918 14.4091 2.79351 10.9964 2.79351Z" fill="#E908B7"/>
</svg>
