<svg width="93" height="86" viewBox="0 0 93 86" fill="none" xmlns="http://www.w3.org/2000/svg">
<path fill-rule="evenodd" clip-rule="evenodd" d="M57.0778 3.41514C60.7288 1.84341 64.7274 1.5726 68.5252 2.64433C71.9805 3.61946 75.0994 5.65738 77.5454 8.49747C79.4787 7.69994 81.9384 6.34118 84.0912 5.05974C85.3321 4.32115 86.4392 3.62765 87.2361 3.11872C87.6343 2.86443 87.9544 2.65666 88.1743 2.51293C88.2842 2.44108 88.3689 2.38526 88.4259 2.34767L88.49 2.30524L88.5094 2.29236C88.5094 2.29234 88.5102 2.29178 88.5103 2.29177C89.0515 1.9312 89.7555 1.96744 90.2592 2.38181C90.7629 2.7962 90.9539 3.49618 90.7336 4.12081L89.324 3.59173C90.7336 4.12081 90.7337 4.12059 90.7336 4.12081L90.7299 4.13148L90.7201 4.15894L90.683 4.26248C90.6507 4.35252 90.6031 4.48388 90.5415 4.6519C90.4182 4.98787 90.2382 5.47076 90.0101 6.06328C89.5542 7.24731 88.9038 8.87411 88.1261 10.6438C86.7152 13.8539 84.8016 17.7331 82.8009 20.2133C82.9449 21.2631 83.0188 22.3238 83.0218 23.3864L83.0219 23.391C83.0219 49.164 72.071 67.8632 56.4316 77.2517C40.8068 86.6314 20.7126 86.5849 2.72147 75.3119C2.13614 74.9452 1.86591 74.216 2.06478 73.5399C2.26364 72.8639 2.8811 72.4126 3.56529 72.4433C12.1217 72.827 20.5832 70.3712 27.9111 65.3924C11.5671 56.2188 6.87374 42.0541 6.39016 30.0551C6.13904 23.8242 7.01746 18.1776 7.95301 14.0976C8.42154 12.0544 8.90642 10.3953 9.27624 9.24158C9.46122 8.66452 9.61762 8.21325 9.7291 7.90289C9.78485 7.74769 9.82938 7.62766 9.86066 7.5447C9.8763 7.50321 9.88864 7.47099 9.8974 7.44826L9.90784 7.42132L9.911 7.41324L9.91205 7.41056C9.91243 7.4096 9.91275 7.40879 11.3023 7.99157L9.91275 7.40879C10.1237 6.8735 10.6061 6.50404 11.1639 6.45071C11.7216 6.39737 12.2616 6.66904 12.5644 7.15521C16.3768 13.2779 21.4632 18.2273 27.3607 21.5752C32.8215 24.6753 38.8254 26.3161 44.9121 26.3886V23.5325C44.8624 19.2117 45.9888 14.9673 48.1533 11.3715C50.3197 7.77178 53.4293 4.98578 57.0778 3.41514ZM11.7598 11.4029C11.4841 12.3423 11.175 13.4905 10.8724 14.8101C9.97936 18.7049 9.15105 24.0579 9.38757 29.9266C9.85784 41.5953 14.5146 55.3019 31.4633 63.7977C31.9348 64.0341 32.2525 64.5073 32.3013 65.0458C32.35 65.5843 32.1226 66.11 31.7016 66.4323C24.9757 71.5813 17.1958 74.6583 9.13578 75.401C24.9064 83.3075 41.6836 82.5242 54.9227 74.5767C69.5163 65.816 80.0213 48.2172 80.0219 23.393C80.0185 22.2559 79.9214 21.1219 79.7322 20.0057C79.6514 19.5293 79.7912 19.0414 80.11 18.6868C81.915 16.6791 83.858 12.8602 85.3938 9.36574C85.7033 8.6614 85.9924 7.97969 86.2562 7.34103C86.0394 7.47214 85.8172 7.60555 85.5905 7.74048C83.0804 9.23454 79.8965 10.9943 77.5437 11.7934C76.9473 11.9959 76.2917 11.7938 75.9008 11.2869C73.7393 8.48401 70.8841 6.51869 67.7337 5.6296C64.5852 4.74111 61.2716 4.96334 58.233 6.27139C55.192 7.58054 52.5568 9.92202 50.702 13.004C48.846 16.0873 47.8674 19.753 47.912 23.504L47.9121 23.523V27.9228C47.9121 28.7604 47.2661 29.4459 46.4546 29.4697C39.3262 29.6781 32.2695 27.8944 25.9144 24.2867C20.4166 21.1657 15.5958 16.7662 11.7598 11.4029Z" fill="#FFB6B6"/>
<path d="M68.5252 2.64433C64.7274 1.5726 60.7288 1.84341 57.0778 3.41514C53.4293 4.98578 50.3197 7.77178 48.1533 11.3715C45.9888 14.9673 44.8624 19.2117 44.9121 23.5325V26.3886C38.8254 26.3161 32.8215 24.6753 27.3607 21.5752C21.4632 18.2273 16.3768 13.2779 12.5644 7.15521C12.2616 6.66904 11.7216 6.39737 11.1639 6.4507C10.6061 6.50404 10.1237 6.8735 9.91275 7.40879L11.3023 7.99157C9.91275 7.40879 9.91243 7.4096 9.91205 7.41056L9.911 7.41324L9.90784 7.42132L9.8974 7.44826C9.88864 7.47099 9.8763 7.50321 9.86066 7.5447C9.82938 7.62766 9.78485 7.74769 9.7291 7.90289C9.61762 8.21325 9.46122 8.66452 9.27624 9.24158C8.90642 10.3953 8.42154 12.0544 7.95301 14.0976C7.01746 18.1776 6.13904 23.8242 6.39016 30.0551C6.87374 42.0541 11.5671 56.2188 27.9111 65.3924C20.5832 70.3712 12.1217 72.827 3.56529 72.4433C2.8811 72.4126 2.26364 72.8639 2.06478 73.5399C1.86591 74.216 2.13614 74.9452 2.72147 75.3119C20.7126 86.5849 40.8068 86.6314 56.4316 77.2517C72.071 67.8632 83.0219 49.164 83.0219 23.391L83.0218 23.3864C83.0188 22.3238 82.9449 21.2631 82.8009 20.2133C84.8016 17.7331 86.7152 13.8539 88.1261 10.6438C88.9038 8.87411 89.5542 7.24731 90.0101 6.06328C90.2382 5.47076 90.4182 4.98787 90.5415 4.6519C90.6031 4.48388 90.6507 4.35252 90.683 4.26248L90.7201 4.15894L90.7299 4.13148L90.7336 4.12081M68.5252 2.64433L68.2037 3.85691M68.5252 2.64433C71.9805 3.61946 75.0994 5.65738 77.5454 8.49747C79.4787 7.69994 81.9384 6.34118 84.0912 5.05974C85.3321 4.32115 86.4392 3.62765 87.2361 3.11872C87.6343 2.86443 87.9544 2.65666 88.1743 2.51293C88.2842 2.44108 88.3689 2.38526 88.4259 2.34767L88.49 2.30524L88.5094 2.29236C88.5094 2.29234 88.5102 2.29178 88.5103 2.29177C89.0515 1.9312 89.7555 1.96744 90.2592 2.38181C90.7629 2.7962 90.9539 3.49618 90.7336 4.12081M90.7336 4.12081L89.324 3.59173C90.7336 4.12081 90.7337 4.12059 90.7336 4.12081ZM10.8724 14.8101C11.175 13.4905 11.4841 12.3423 11.7598 11.4029C15.5958 16.7662 20.4166 21.1657 25.9144 24.2867C32.2695 27.8944 39.3262 29.6781 46.4546 29.4697C47.2661 29.4459 47.9121 28.7604 47.9121 27.9228V23.523L47.912 23.504C47.8674 19.753 48.846 16.0873 50.702 13.004C52.5568 9.92202 55.192 7.58054 58.233 6.27139C61.2716 4.96334 64.5852 4.74111 67.7337 5.6296C70.8841 6.51869 73.7393 8.48401 75.9008 11.2869C76.2917 11.7938 76.9473 11.9959 77.5437 11.7934C79.8965 10.9943 83.0804 9.23454 85.5905 7.74048C85.8172 7.60555 86.0394 7.47214 86.2562 7.34103C85.9924 7.97969 85.7033 8.6614 85.3938 9.36574C83.858 12.8602 81.915 16.6791 80.11 18.6868C79.7912 19.0414 79.6514 19.5293 79.7322 20.0057C79.9214 21.1219 80.0185 22.2559 80.0219 23.393C80.0213 48.2172 69.5163 65.816 54.9227 74.5767C41.6836 82.5242 24.9064 83.3075 9.13578 75.401C17.1958 74.6583 24.9757 71.5813 31.7016 66.4323C32.1226 66.11 32.35 65.5843 32.3013 65.0458C32.2525 64.5073 31.9348 64.0341 31.4633 63.7977C14.5146 55.3019 9.85784 41.5953 9.38757 29.9266C9.15105 24.0579 9.97936 18.7049 10.8724 14.8101Z" stroke="url(#paint0_linear_262_1406)" stroke-width="3" stroke-linecap="round" stroke-linejoin="round"/>
<defs>
<linearGradient id="paint0_linear_262_1406" x1="2" y1="84.0445" x2="85.9321" y2="84.0445" gradientUnits="userSpaceOnUse">
<stop stop-color="#D807FA" stop-opacity="0.76"/>
<stop offset="1" stop-color="#FF0CBB"/>
</linearGradient>
</defs>
</svg>
