<svg width="80" height="80" viewBox="0 0 80 80" fill="none" xmlns="http://www.w3.org/2000/svg">
<path fill-rule="evenodd" clip-rule="evenodd" d="M5.16663 39.9998C5.16663 20.8381 20.8382 5.1665 40 5.1665C59.1617 5.1665 74.8333 20.8381 74.8333 39.9998C74.8333 59.1616 59.1617 74.8332 40 74.8332C33.9559 74.8332 27.9132 73.2166 22.795 70.285L12.6894 73.1719C11.87 73.4065 11.0031 73.4202 10.1767 73.2116C9.35027 73.003 8.5937 72.5796 7.98371 71.9844C7.37371 71.3891 6.93197 70.6431 6.70328 69.822C6.4746 69.0009 6.4671 68.134 6.68155 67.3091L9.40239 56.8497C6.79666 51.7924 5.16663 46.0707 5.16663 39.9998ZM40 8.1665C22.4951 8.1665 8.16663 22.4949 8.16663 39.9998C8.16663 45.7188 9.75514 51.145 12.3235 55.9606C12.5007 56.2929 12.5465 56.6797 12.4516 57.0441L9.58504 68.0639C9.58502 68.064 9.58506 68.0638 9.58504 68.0639C9.50376 68.3767 9.50656 68.7057 9.59328 69.0171C9.68002 69.3285 9.84758 69.6115 10.079 69.8373C10.3103 70.0631 10.5973 70.2237 10.9108 70.3028C11.2242 70.3819 11.553 70.3767 11.8639 70.2877L22.5879 67.2242C22.9871 67.1102 23.4157 67.1667 23.7717 67.3803C28.5359 70.2388 34.2687 71.8332 40 71.8332C57.5049 71.8332 71.8333 57.5047 71.8333 39.9998C71.8333 22.4949 57.5049 8.1665 40 8.1665Z" fill="#FFB6B6"/>
<path d="M9.58504 68.0639L12.4516 57.0441C12.5465 56.6797 12.5007 56.2929 12.3235 55.9606C9.75514 51.145 8.16663 45.7188 8.16663 39.9998C8.16663 22.4949 22.4951 8.1665 40 8.1665C57.5049 8.1665 71.8333 22.4949 71.8333 39.9998C71.8333 57.5047 57.5049 71.8332 40 71.8332C34.2687 71.8332 28.5359 70.2388 23.7717 67.3803C23.4157 67.1667 22.9871 67.1102 22.5879 67.2242L11.8639 70.2877C11.553 70.3767 11.2242 70.3819 10.9108 70.3028C10.5973 70.2237 10.3103 70.0631 10.079 69.8373C9.84758 69.6115 9.68002 69.3285 9.59328 69.0171C9.50656 68.7057 9.50376 68.3767 9.58504 68.0639ZM9.58504 68.0639C9.58506 68.0638 9.58502 68.064 9.58504 68.0639ZM40 5.1665C20.8382 5.1665 5.16663 20.8381 5.16663 39.9998C5.16663 46.0707 6.79666 51.7924 9.40239 56.8497L6.68155 67.3091C6.4671 68.134 6.4746 69.0009 6.70328 69.822C6.93197 70.6431 7.37371 71.3891 7.98371 71.9844C8.5937 72.5796 9.35027 73.003 10.1767 73.2116C11.0031 73.4202 11.87 73.4065 12.6894 73.1719L22.795 70.285C27.9132 73.2166 33.9559 74.8332 40 74.8332C59.1617 74.8332 74.8333 59.1616 74.8333 39.9998C74.8333 20.8381 59.1617 5.1665 40 5.1665Z" stroke="url(#paint0_linear_262_1402)" stroke-width="3" stroke-miterlimit="10" stroke-linecap="round" stroke-linejoin="round"/>
<path fill-rule="evenodd" clip-rule="evenodd" d="M30.3933 26.5C29.7421 26.5 29.0549 26.7565 28.3232 27.4781L28.3108 27.4903L28.2982 27.5022C27.6508 28.1116 27.2094 28.7694 26.9362 29.465L26.9327 29.4738C26.6482 30.1851 26.5 30.9681 26.5 31.81C26.5 33.1292 26.804 34.5615 27.4589 36.1262C28.2043 37.8289 29.1356 39.444 30.2357 40.9422L30.2375 40.9446C31.4626 42.6199 32.8127 44.2001 34.2764 45.6717C35.7567 47.1388 37.3451 48.4927 39.0281 49.7221L39.0335 49.726C40.5452 50.8405 42.1781 51.7805 43.9011 52.528C45.4796 53.1964 46.915 53.5 48.21 53.5C49.0716 53.5 49.8504 53.3423 50.5576 53.0463L50.5683 53.0418C51.2592 52.7589 51.8892 52.3151 52.4928 51.6517M26.2293 25.3296C27.415 24.1655 28.8234 23.5 30.3933 23.5C31.0206 23.5 31.6599 23.6331 32.2477 23.9123C32.8584 24.1959 33.4099 24.6299 33.8419 25.2446L37.3239 30.1448C37.3243 30.1453 37.3246 30.1458 37.325 30.1462C37.6344 30.5796 37.8993 31.0263 38.089 31.4921C38.2749 31.9325 38.4133 32.4471 38.4133 32.98V32.9886L38.4132 32.9972C38.4058 33.646 38.2199 34.2801 37.876 34.83C37.5833 35.3199 37.2283 35.7698 36.8198 36.1684L35.982 37.0381C36.1976 37.3874 36.5512 37.8668 37.0746 38.4827C37.7333 39.2418 38.4268 40.0088 39.1731 40.7683C39.9695 41.5481 40.7173 42.2502 41.4719 42.8913C42.09 43.4115 42.5808 43.7606 42.9474 43.9782L43.7874 43.148C43.7877 43.1476 43.7881 43.1473 43.7884 43.147C44.2116 42.7276 44.6723 42.349 45.1738 42.0751C45.7194 41.741 46.3466 41.5626 46.9872 41.56L47.0013 41.56L47.0155 41.5602C47.522 41.5676 48.0221 41.6737 48.4879 41.8724C48.9386 42.0562 49.3769 42.3063 49.8098 42.6039L49.8188 42.6101L54.7796 46.1279C55.3641 46.5157 55.8293 47.0587 56.1227 47.6963L56.1331 47.7189L56.1427 47.7418C56.3747 48.2934 56.496 48.8852 56.5 49.4835L56.5 49.4933C56.5 50.2567 56.3301 51.032 55.9796 51.7707C55.6544 52.4626 55.2278 53.1022 54.7139 53.6683L54.713 53.6692C53.8449 54.6238 52.857 55.3455 51.7105 55.8159C50.6192 56.2718 49.4464 56.5 48.21 56.5C46.4398 56.5 44.6038 56.0843 42.7246 55.2877L42.7133 55.2829C40.7815 54.4454 38.9507 53.3919 37.2558 52.1426C35.4512 50.8241 33.748 49.3721 32.1607 47.7986L32.1533 47.7913C30.5818 46.2117 29.1322 44.5153 27.8169 42.7168C26.5838 41.0374 25.5403 39.2266 24.7056 37.3176L24.7011 37.3072L24.6967 37.2968C23.9147 35.4321 23.5 33.6013 23.5 31.81C23.5 30.6135 23.7113 29.4513 24.1455 28.3639C24.5905 27.233 25.2908 26.2163 26.2293 25.3296ZM30.3933 26.5C30.6028 26.5 30.8002 26.5455 30.9632 26.6234L30.3933 26.5ZM31.3883 26.9709C31.2763 26.811 31.1456 26.7077 30.9814 26.6319L30.9723 26.6277L30.9632 26.6234M31.3883 26.9709L34.8806 31.8855L31.3883 26.9709ZM35.3126 32.6286C35.2361 32.4394 35.1034 32.1975 34.8827 31.8885L34.8806 31.8855M35.4132 32.9739C35.4116 32.9374 35.3965 32.8264 35.3231 32.654L35.3177 32.6413L35.3126 32.6286M35.4132 32.9739C35.4101 33.0692 35.3816 33.162 35.3304 33.2426L35.3182 33.2619L35.3065 33.2815C35.1431 33.5569 34.9437 33.8093 34.7136 34.032L34.6947 34.0503L33.5445 35.2441C33.3253 35.4639 33.1527 35.7259 33.0373 36.0143C32.922 36.3026 32.8663 36.6112 32.8734 36.9214C32.8758 37.1826 32.9157 37.4073 32.9648 37.6038L32.9833 37.6778L33.0092 37.7495C33.0455 37.85 33.0824 37.9362 33.1024 37.9831L33.1057 37.9907C33.1145 38.0114 33.1189 38.0218 33.1217 38.0286L33.1576 38.1363L33.2184 38.2496C33.5597 38.8851 34.1062 39.623 34.794 40.4318L34.7988 40.4374L34.8036 40.4429C35.4938 41.2386 36.2356 42.0597 37.0437 42.8816L37.0536 42.8917L37.0637 42.9016C37.8893 43.7103 38.6975 44.4709 39.5323 45.1799L39.5373 45.1842C40.3612 45.8778 41.0987 46.4005 41.7382 46.739L41.78 46.7611L42.1519 46.929L42.2092 46.9494C42.4918 47.0503 42.79 47.1001 43.0898 47.0968C43.4015 47.0988 43.7105 47.0381 43.9985 46.9182C44.2884 46.7976 44.5508 46.6195 44.77 46.3948L45.8993 45.2787C46.2146 44.9662 46.4565 44.79 46.6279 44.6993L46.6816 44.6709L46.7328 44.6383C46.8089 44.5898 46.8967 44.5629 46.9867 44.5602C47.0997 44.5638 47.2111 44.5887 47.3149 44.6336L47.3314 44.6407L47.3481 44.6474C47.5498 44.729 47.7969 44.8614 48.1017 45.0702L53.0902 48.6076L53.1153 48.624C53.232 48.6999 53.326 48.8057 53.3877 48.9302C53.46 49.1109 53.4981 49.3036 53.5 49.4984C53.4993 49.8125 53.4295 50.1475 53.2686 50.4861L53.2655 50.4927C53.0671 50.9153 52.8066 51.3061 52.4928 51.6517" fill="#F40E8A"/>
<path d="M30.3933 26.5C29.7421 26.5 29.0549 26.7565 28.3232 27.4781L28.3108 27.4903L28.2982 27.5022C27.6508 28.1116 27.2094 28.7694 26.9362 29.465L26.9327 29.4738C26.6482 30.1851 26.5 30.9681 26.5 31.81C26.5 33.1292 26.804 34.5615 27.4589 36.1262C28.2043 37.8289 29.1356 39.444 30.2357 40.9422L30.2375 40.9446C31.4626 42.6199 32.8127 44.2001 34.2764 45.6717C35.7567 47.1388 37.3451 48.4927 39.0281 49.7221L39.0335 49.726C40.5452 50.8405 42.1781 51.7805 43.9011 52.528C45.4796 53.1964 46.915 53.5 48.21 53.5C49.0716 53.5 49.8504 53.3423 50.5576 53.0463L50.5683 53.0418C51.2592 52.7589 51.8892 52.3151 52.4928 51.6517M30.3933 26.5L52.4928 51.6517M30.3933 26.5C30.6028 26.5 30.8002 26.5455 30.9632 26.6234M30.3933 26.5L30.9632 26.6234M52.4928 51.6517C52.8066 51.3061 53.0671 50.9153 53.2655 50.4927L53.2686 50.4861C53.4295 50.1475 53.4993 49.8125 53.5 49.4984C53.4981 49.3036 53.46 49.1109 53.3877 48.9302C53.326 48.8057 53.232 48.6999 53.1153 48.624L53.0902 48.6076L48.1017 45.0702C47.7969 44.8614 47.5498 44.729 47.3481 44.6474L47.3314 44.6407L47.3149 44.6336C47.2111 44.5887 47.0997 44.5638 46.9867 44.5602C46.8967 44.5629 46.8089 44.5898 46.7328 44.6383L46.6816 44.6709L46.6279 44.6993C46.4565 44.79 46.2146 44.9662 45.8993 45.2787L44.77 46.3948C44.5508 46.6195 44.2884 46.7976 43.9985 46.9182C43.7105 47.0381 43.4015 47.0988 43.0898 47.0968C42.79 47.1001 42.4918 47.0503 42.2092 46.9494L42.1519 46.929L41.78 46.7611L41.7382 46.739C41.0987 46.4005 40.3612 45.8778 39.5373 45.1842L39.5323 45.1799C38.6975 44.4709 37.8893 43.7103 37.0637 42.9016L37.0536 42.8917L37.0437 42.8816C36.2356 42.0597 35.4938 41.2386 34.8036 40.4429L34.7988 40.4374L34.794 40.4318C34.1062 39.623 33.5597 38.8851 33.2184 38.2496L33.1576 38.1363L33.1217 38.0286C33.1189 38.0218 33.1145 38.0114 33.1057 37.9907L33.1024 37.9831C33.0824 37.9362 33.0455 37.85 33.0092 37.7495L32.9833 37.6778L32.9648 37.6038C32.9157 37.4073 32.8758 37.1826 32.8734 36.9214C32.8663 36.6112 32.922 36.3026 33.0373 36.0143C33.1527 35.7259 33.3253 35.4639 33.5445 35.2441L34.6947 34.0503L34.7136 34.032C34.9437 33.8093 35.1431 33.5569 35.3065 33.2815L35.3182 33.2619L35.3304 33.2426C35.3816 33.162 35.4101 33.0692 35.4132 32.9739M52.4928 51.6517L35.4132 32.9739M30.9632 26.6234L30.9723 26.6277L30.9814 26.6319C31.1456 26.7077 31.2763 26.811 31.3883 26.9709M30.9632 26.6234L31.3883 26.9709M31.3883 26.9709L34.8806 31.8855M34.8806 31.8855L34.8827 31.8885C35.1034 32.1975 35.2361 32.4394 35.3126 32.6286M34.8806 31.8855L35.3126 32.6286M35.3126 32.6286L35.3177 32.6413L35.3231 32.654C35.3965 32.8264 35.4116 32.9374 35.4132 32.9739M35.3126 32.6286L35.4132 32.9739M30.3933 23.5C28.8234 23.5 27.415 24.1655 26.2293 25.3296C25.2908 26.2163 24.5905 27.233 24.1455 28.3639C23.7113 29.4513 23.5 30.6135 23.5 31.81C23.5 33.6013 23.9147 35.4321 24.6967 37.2968L24.7011 37.3072L24.7056 37.3176C25.5403 39.2266 26.5838 41.0374 27.8169 42.7168C29.1322 44.5153 30.5818 46.2117 32.1533 47.7913L32.1607 47.7986C33.748 49.3721 35.4512 50.8241 37.2558 52.1426C38.9507 53.3919 40.7815 54.4454 42.7133 55.2829L42.7246 55.2877C44.6038 56.0843 46.4398 56.5 48.21 56.5C49.4464 56.5 50.6192 56.2718 51.7105 55.8159C52.857 55.3455 53.8449 54.6238 54.713 53.6692L54.7139 53.6683C55.2278 53.1022 55.6544 52.4626 55.9796 51.7707C56.3301 51.032 56.5 50.2567 56.5 49.4933L56.5 49.4835C56.496 48.8852 56.3747 48.2934 56.1427 47.7418L56.1331 47.7189L56.1227 47.6963C55.8293 47.0587 55.3641 46.5157 54.7796 46.1279L49.8188 42.6101L49.8098 42.6039C49.3769 42.3063 48.9386 42.0562 48.4879 41.8724C48.0221 41.6737 47.522 41.5676 47.0155 41.5602L47.0013 41.56L46.9872 41.56C46.3466 41.5626 45.7194 41.741 45.1738 42.0751C44.6723 42.349 44.2116 42.7276 43.7884 43.147C43.7881 43.1473 43.7877 43.1476 43.7874 43.148L42.9474 43.9782C42.5808 43.7606 42.09 43.4115 41.4719 42.8913C40.7173 42.2502 39.9695 41.5481 39.1731 40.7683C38.4268 40.0088 37.7333 39.2418 37.0746 38.4827C36.5512 37.8668 36.1976 37.3874 35.982 37.0381L36.8198 36.1684C37.2283 35.7698 37.5833 35.3199 37.876 34.83C38.2199 34.2801 38.4058 33.646 38.4132 32.9972L38.4133 32.9886V32.98C38.4133 32.4471 38.2749 31.9325 38.089 31.4921C37.8993 31.0263 37.6344 30.5796 37.325 30.1462C37.3246 30.1458 37.3243 30.1453 37.3239 30.1448L33.8419 25.2446C33.4099 24.6299 32.8584 24.1959 32.2477 23.9123C31.6599 23.6331 31.0206 23.5 30.3933 23.5Z" stroke="url(#paint1_linear_262_1402)" stroke-width="3" stroke-miterlimit="10"/>
<defs>
<linearGradient id="paint0_linear_262_1402" x1="5.16663" y1="74.8332" x2="70.9964" y2="74.8332" gradientUnits="userSpaceOnUse">
<stop stop-color="#D807FA" stop-opacity="0.76"/>
<stop offset="1" stop-color="#FF0CBB"/>
</linearGradient>
<linearGradient id="paint1_linear_262_1402" x1="23.5" y1="56.5" x2="54.6825" y2="56.5" gradientUnits="userSpaceOnUse">
<stop stop-color="#D807FA" stop-opacity="0.76"/>
<stop offset="1" stop-color="#FF0CBB"/>
</linearGradient>
</defs>
</svg>
