<svg width="60" height="60" viewBox="0 0 60 60" fill="none" xmlns="http://www.w3.org/2000/svg">
<path fill-rule="evenodd" clip-rule="evenodd" d="M8.00184 8.00184C11.2333 4.7704 16.1021 3.5 22.5 3.5H37.5C43.8979 3.5 48.7667 4.7704 51.9982 8.00184C54.9675 10.9712 56.281 15.323 56.4746 20.9734C56.4913 21.0631 56.5 21.1555 56.5 21.25C56.5 21.3147 56.4959 21.3784 56.488 21.441C56.496 21.7892 56.5 22.1422 56.5 22.5V37.5C56.5 37.8578 56.496 38.2108 56.488 38.559C56.4959 38.6216 56.5 38.6853 56.5 38.75C56.5 38.8445 56.4913 38.9369 56.4746 39.0266C56.281 44.677 54.9675 49.0288 51.9982 51.9982C48.7667 55.2296 43.8979 56.5 37.5 56.5H22.5C16.1021 56.5 11.2333 55.2296 8.00184 51.9982C4.7704 48.7667 3.5 43.8979 3.5 37.5V22.5C3.5 16.1021 4.7704 11.2333 8.00184 8.00184ZM53.5 37.25V22.75H40.275V37.25H53.5ZM40.275 40.25H53.4067C53.0787 44.8008 51.8891 47.8646 49.8768 49.8768C47.8682 51.8854 44.8121 53.0744 40.275 53.4049V40.25ZM37.275 37.25V22.75H22.775V37.25H37.275ZM22.775 40.25H37.275V53.5H22.775V40.25ZM19.775 37.25V22.75H6.5V37.25H19.775ZM6.59334 40.25H19.775V53.4085C15.2104 53.0831 12.1391 51.8928 10.1232 49.8768C8.11088 47.8646 6.92128 44.8008 6.59334 40.25ZM6.59334 19.75H19.775V6.59155C15.2104 6.91692 12.1391 8.1072 10.1232 10.1232C8.11088 12.1354 6.92128 15.1992 6.59334 19.75ZM22.775 6.5V19.75H37.275V6.5H22.775ZM40.275 6.59515V19.75H53.4067C53.0787 15.1992 51.8891 12.1354 49.8768 10.1232C47.8682 8.11457 44.8121 6.92564 40.275 6.59515Z" fill="black"/>
</svg>
