<svg width="60" height="60" viewBox="0 0 60 60" fill="none" xmlns="http://www.w3.org/2000/svg">
<path fill-rule="evenodd" clip-rule="evenodd" d="M33.7091 7.16325C32.5372 6.7024 31.2859 6.4769 30.0269 6.49961L29.9998 6.49985C24.6804 6.49985 20.3998 10.8011 20.3998 16.0999L20.3998 16.1041C20.3928 18.5855 21.3518 20.9722 23.0739 22.7588C24.7767 24.5254 27.0933 25.568 29.5426 25.6725C29.8404 25.6508 30.1566 25.6502 30.4496 25.6734C31.6824 25.6413 32.8976 25.3717 34.0287 24.8791C35.1832 24.3763 36.2274 23.651 37.1017 22.7446C37.9759 21.8383 38.6631 20.7686 39.1239 19.5966C39.5848 18.4247 39.8103 17.1735 39.7875 15.9144C39.7648 14.6553 39.4944 13.413 38.9915 12.2585C38.4887 11.104 37.7634 10.0597 36.8571 9.1855C35.9507 8.31125 34.881 7.62409 33.7091 7.16325ZM29.9863 3.49986C31.6347 3.4719 33.2726 3.76798 34.807 4.37135C36.3455 4.97638 37.7499 5.87852 38.9398 7.02627C40.1297 8.17402 41.0819 9.5449 41.742 11.0606C42.4021 12.5764 42.7572 14.2073 42.7871 15.8603C42.8169 17.5133 42.5208 19.1559 41.9158 20.6945C41.3108 22.2331 40.4086 23.6374 39.2609 24.8273C38.1131 26.0173 36.7423 26.9695 35.2265 27.6296C33.7108 28.2897 32.0798 28.6448 30.4269 28.6746C30.368 28.6757 30.3091 28.6733 30.2505 28.6674C30.1041 28.6528 29.9 28.6515 29.7106 28.6687C29.6485 28.6743 29.5862 28.6761 29.5239 28.674C26.2649 28.5633 23.1769 27.1885 20.9139 24.8407C18.6514 22.4934 17.3911 19.3578 17.3998 16.0977C17.401 9.15196 23.0126 3.50714 29.9863 3.49986ZM30.4311 31.4686C35.195 31.4686 40.0338 32.6652 43.7579 35.1525C47.0947 37.3732 48.9623 40.4532 48.9623 43.728C48.9623 47.0025 47.0949 50.0884 43.7592 52.3213L43.7589 52.3215C40.023 54.8212 35.178 56.0248 30.4123 56.0248C25.6473 56.0248 20.8029 54.8215 17.0672 52.3225C13.7301 50.1018 11.8623 47.0216 11.8623 43.7467C11.8623 40.4722 13.7297 37.3863 17.0654 35.1534L17.0709 35.1497C20.8178 32.6654 25.6667 31.4686 30.4311 31.4686ZM18.7315 37.6482C16.0191 39.4649 14.8623 41.7032 14.8623 43.7467C14.8623 45.79 16.0188 48.0218 18.7307 49.826L18.7339 49.8282C21.873 51.9285 26.103 53.0248 30.4123 53.0248C34.7215 53.0248 38.9513 51.9286 42.0904 49.8284C44.8047 48.0113 45.9623 45.7722 45.9623 43.728C45.9623 41.6847 44.8058 39.4529 42.0939 37.6487L42.0917 37.6472C38.9658 35.5595 34.7422 34.4686 30.4311 34.4686C26.1217 34.4686 21.8844 35.5587 18.7315 37.6482Z" fill="black"/>
</svg>
