<svg width="52" height="54" viewBox="0 0 52 54" fill="none" xmlns="http://www.w3.org/2000/svg">
<path fill-rule="evenodd" clip-rule="evenodd" d="M25.3571 6.1855C23.5266 4.41989 21.0697 3.45374 18.5269 3.49961L18.4998 3.49985C13.1804 3.49985 8.89981 7.80108 8.89981 13.0999L8.8998 13.1041C8.89276 15.5855 9.85181 17.9722 11.5739 19.7588C13.2767 21.5254 15.5933 22.568 18.0426 22.6725C18.3404 22.6508 18.6566 22.6502 18.9496 22.6734C21.4643 22.6079 23.8538 21.5566 25.6017 19.7446C27.3673 17.9141 28.3334 15.4572 28.2875 12.9144C28.2417 10.3716 27.1876 7.95112 25.3571 6.1855ZM18.4863 0.49986C21.8198 0.443309 25.0399 1.71141 27.4398 4.02627C29.8429 6.34426 31.2268 9.52195 31.2871 12.8603C31.3473 16.1986 30.0789 19.4242 27.7609 21.8273C25.4429 24.2305 22.2652 25.6144 18.9269 25.6746C18.868 25.6757 18.8091 25.6733 18.7505 25.6674C18.6041 25.6528 18.4 25.6515 18.2106 25.6687C18.1485 25.6743 18.0862 25.6761 18.0239 25.674C14.7649 25.5633 11.6769 24.1885 9.41389 21.8407C7.15138 19.4934 5.8911 16.3578 5.89981 13.0977C5.90095 6.15196 11.5126 0.507148 18.4863 0.49986ZM35.5248 6.99985C35.5248 6.17143 36.1964 5.49985 37.0248 5.49985C42.706 5.49985 47.2748 10.0992 47.2748 15.7499C47.2748 21.2858 42.8826 25.7938 37.4059 25.9988C37.3296 26.0017 37.2531 25.9987 37.1772 25.9899C37.076 25.9782 36.9737 25.9782 36.8724 25.9899C36.0494 26.0852 35.3051 25.4953 35.2098 24.6724C35.1145 23.8495 35.7043 23.1051 36.5272 23.0098C36.8141 22.9766 37.1034 22.9722 37.3909 22.9966C41.2188 22.8024 44.2748 19.6311 44.2748 15.7499C44.2748 11.7505 41.0436 8.49985 37.0248 8.49985C36.1964 8.49985 35.5248 7.82828 35.5248 6.99985ZM18.9311 28.4686C23.695 28.4686 28.5338 29.6652 32.2579 32.1525C35.5947 34.3732 37.4623 37.4532 37.4623 40.728C37.4623 44.0025 35.5949 47.0884 32.2592 49.3213L32.2589 49.3215C28.523 51.8212 23.678 53.0249 18.9123 53.0249C14.1473 53.0249 9.3029 51.8215 5.56717 49.3225C2.23013 47.1018 0.362305 44.0216 0.362305 40.7467C0.362305 37.4722 2.22969 34.3863 5.56538 32.1534L5.57089 32.1497C9.31776 29.6654 14.1667 28.4686 18.9311 28.4686ZM7.2315 34.6482C4.51915 36.4649 3.3623 38.7032 3.3623 40.7467C3.3623 42.79 4.51882 45.0218 7.23066 46.826L7.23395 46.8282C10.373 48.9285 14.603 50.0249 18.9123 50.0249C23.2215 50.0249 27.4513 48.9286 30.5904 46.8284C33.3047 45.0113 34.4623 42.7722 34.4623 40.728C34.4623 38.6847 33.3058 36.4529 30.5939 34.6487L30.5917 34.6472C27.4658 32.5595 23.2422 31.4686 18.9311 31.4686C14.6217 31.4686 10.3844 32.5587 7.2315 34.6482ZM40.4615 31.6701C40.6436 30.8619 41.4464 30.3544 42.2546 30.5365C44.1884 30.9723 46.0729 31.747 47.6551 32.9538C49.9271 34.66 51.1748 37.0178 51.1748 39.4874C51.1748 41.9563 49.9277 44.3136 47.6566 46.0197C46.0537 47.2487 44.1404 48.0549 42.1557 48.4683C41.3447 48.6373 40.5503 48.1168 40.3813 47.3058C40.2124 46.4948 40.7329 45.7003 41.5439 45.5314C43.1565 45.1954 44.6405 44.5533 45.8363 43.6351L45.8498 43.6249C47.4744 42.4064 48.1748 40.8909 48.1748 39.4874C48.1748 38.0838 47.4744 36.5683 45.8498 35.3498L45.8394 35.342L45.8394 35.342C44.6726 34.451 43.2091 33.8269 41.5951 33.4632C40.7869 33.281 40.2794 32.4783 40.4615 31.6701Z" fill="black"/>
</svg>
