<svg width="432" height="273" viewBox="0 0 432 273" fill="none" xmlns="http://www.w3.org/2000/svg">
<g clip-path="url(#clip0_399_527)">
<g opacity="0.2">
<path d="M364.169 235.934C361.193 237.724 358.159 239.457 355.065 241.134C354.585 241.393 354.105 241.653 353.625 241.92C351.3 243.165 348.938 244.375 346.54 245.551C346.558 245.363 346.582 245.174 346.611 244.986C346.885 243.033 347.495 241.142 348.414 239.397C348.845 238.562 349.359 237.772 349.949 237.039C352.29 234.118 355.541 232.487 358.863 232.963C360.934 233.28 362.818 234.336 364.169 235.934Z" fill="#3F3D56"/>
<path d="M369.624 231.466C369.565 231.886 369.49 232.299 369.4 232.708C367.681 233.811 365.937 234.886 364.169 235.934C361.193 237.724 358.159 239.457 355.065 241.134C354.585 241.393 354.105 241.653 353.624 241.92C353.047 241.497 352.519 241.01 352.05 240.47C351.17 239.454 350.464 238.3 349.96 237.054C348.908 234.335 348.573 231.392 348.986 228.507C349.4 225.621 350.548 222.89 352.322 220.575C354.683 217.655 357.915 216.024 361.237 216.499C364.558 216.975 367.219 219.455 368.644 222.913C369.726 225.627 370.064 228.579 369.624 231.466Z" fill="#3F3D56"/>
<path d="M372.01 214.999C373.082 207.552 369.332 200.853 363.635 200.035C357.937 199.217 352.45 204.591 351.378 212.038C350.306 219.484 354.055 226.184 359.753 227.002C365.45 227.82 370.938 222.446 372.01 214.999Z" fill="#3F3D56"/>
<path d="M431.485 77.2875C430.471 84.4103 427.92 91.2281 424.006 97.2687L394.723 92.8433L421.188 101.179C419.755 102.986 418.199 104.693 416.532 106.289C422.13 115.968 424.307 127.244 422.716 138.308C421.124 149.371 415.855 159.579 407.755 167.293C412.49 175.451 414.799 184.787 414.411 194.207C401.961 208.674 386.773 221.652 369.412 232.723C367.685 233.816 365.937 234.886 364.169 235.934C361.193 237.724 358.159 239.457 355.065 241.134C354.046 240.937 353.042 240.713 352.05 240.454C350.818 240.143 349.61 239.782 348.425 239.381C340.308 236.615 333.041 231.807 327.326 225.421C321.61 219.035 317.639 211.286 315.795 202.922C313.951 194.558 314.297 185.86 316.798 177.668C319.299 169.476 323.872 162.065 330.076 156.151C329.572 155.284 329.096 154.402 328.647 153.506C328.514 153.247 328.388 152.987 328.254 152.72C324.617 145.147 322.965 136.776 323.452 128.392L323.511 127.523C323.547 127.056 323.59 126.584 323.637 126.116C323.708 125.456 323.791 124.792 323.885 124.128V124.065C324.655 118.704 326.301 113.506 328.758 108.678L364.46 126.631L331.906 103.333C333.914 100.362 336.237 97.6164 338.834 95.1425C335.439 89.2178 333.3 82.6603 332.548 75.8761C331.795 69.092 332.446 62.2259 334.461 55.7033C336.475 49.1808 339.809 43.1407 344.256 37.9576C348.704 32.7744 354.17 28.5585 360.316 25.5712C366.462 22.584 373.157 20.8889 379.986 20.5912C386.815 20.2935 393.632 21.3994 400.016 23.8404C406.399 26.2814 412.212 30.0055 417.095 34.7819C421.978 39.5582 425.827 45.2851 428.403 51.6076L388.308 73.0233L430.564 58.2968C432.091 64.5089 432.404 70.9571 431.485 77.2875Z" fill="#6C63FF"/>
<path opacity="0.1" d="M414.399 194.192C401.95 208.659 386.761 221.636 369.4 232.708C367.681 233.811 365.937 234.886 364.169 235.934C361.193 237.724 358.159 239.457 355.065 241.134C354.046 240.937 353.042 240.713 352.05 240.454C350.818 240.144 349.61 239.782 348.425 239.381C340.308 236.615 333.041 231.807 327.326 225.421C321.61 219.035 317.639 211.286 315.795 202.922C313.951 194.558 314.297 185.86 316.798 177.668C319.299 169.476 323.872 162.065 330.076 156.151C329.572 155.284 329.096 154.402 328.647 153.506C328.514 153.247 328.388 152.987 328.254 152.72C324.617 145.147 322.965 136.776 323.452 128.392L323.511 127.523C323.547 127.056 323.59 126.584 323.637 126.116C323.708 125.456 323.791 124.792 323.885 124.128V124.065C324.192 123.004 328.254 123.896 334.441 126.03L335.748 126.494C337.118 126.985 338.578 127.527 340.113 128.121C343.462 129.41 347.162 130.931 351.066 132.613L351.322 132.723L351.865 132.959C378.118 144.325 412.651 162.561 407.7 167.27C412.451 175.425 414.775 184.764 414.399 194.192Z" fill="black"/>
</g>
<g opacity="0.2">
<path d="M125.519 257.991C123.866 257.419 122.225 256.832 120.596 256.23C116.801 254.836 113.066 253.362 109.39 251.808C110.136 251.204 110.982 250.736 111.889 250.425C115.168 249.301 118.769 250.374 121.702 252.96C123.284 254.378 124.58 256.086 125.519 257.991Z" fill="#3F3D56"/>
<path d="M121.702 252.96C121.479 254.094 121.107 255.193 120.596 256.23C116.801 254.836 113.066 253.362 109.39 251.808C106.192 250.464 103.043 249.061 99.944 247.599C99.8086 246.661 99.748 245.713 99.763 244.765C99.7762 243.778 99.8816 242.794 100.078 241.826C100.865 237.962 103.093 234.885 106.375 233.761C109.658 232.637 113.255 233.71 116.187 236.3C116.897 236.928 117.548 237.62 118.132 238.367C119.424 240.029 120.42 241.901 121.076 243.901C122.07 246.815 122.285 249.937 121.702 252.96Z" fill="#3F3D56"/>
<path d="M109.687 244.429C115.35 242.641 117.999 235.06 115.604 227.496C113.21 219.931 106.679 215.247 101.016 217.035C95.3536 218.822 92.7042 226.403 95.0986 233.968C97.493 241.532 104.024 246.216 109.687 244.429Z" fill="#3F3D56"/>
<path d="M103.36 226.982C109.002 225.203 111.643 217.651 109.26 210.114C106.876 202.577 100.371 197.91 94.7289 199.689C89.0872 201.468 86.4459 209.02 88.8294 216.557C91.2129 224.093 97.7186 228.761 103.36 226.982Z" fill="#3F3D56"/>
<path d="M118.112 238.367C117.018 239.006 115.895 239.605 114.743 240.163C112.886 241.064 110.977 241.852 109.024 242.521C107.243 243.135 105.428 243.648 103.589 244.058C102.311 244.346 101.032 244.581 99.7512 244.761C98.1611 244.989 96.575 245.139 94.9927 245.209C75.9745 235.777 58.9006 224.238 44.3299 211.06C44.1213 210.502 43.9363 209.94 43.7356 209.37C40.0004 198.186 40.064 186.085 43.9166 174.941C34.1733 168.409 26.8972 158.811 23.2453 147.674C21.4285 142.223 20.4984 136.518 20.4902 130.774H61.7108L20.8916 124.257C21.345 120.51 22.1947 116.821 23.4263 113.253C13.6825 106.723 6.40605 97.1255 2.75501 85.989C-6.39988 58.4343 7.99369 28.608 34.9034 19.3563C52.918 13.1701 71.9717 17.7842 85.3498 29.7713L58.5267 68.9791L90.4625 35.0535C94.7836 40.2051 98.0853 46.1294 100.192 52.5115C102.594 59.7201 103.437 67.3557 102.664 74.9137L73.6838 84.6213L101.904 79.9325C101.434 82.3101 100.801 84.6527 100.011 86.944C109.754 93.4752 117.03 103.072 120.682 114.208C122.451 119.513 123.381 125.061 123.437 130.652V130.695C123.437 131.127 123.437 131.56 123.437 131.992C123.437 132.177 123.437 132.358 123.437 132.542C123.3 138.031 122.316 143.466 120.521 148.656C124.481 151.305 128.057 154.486 131.148 158.108C131.227 158.195 131.301 158.281 131.372 158.372C135.731 163.543 139.059 169.5 141.177 175.92C149.233 200.169 139.035 226.187 118.112 238.367Z" fill="#6C63FF"/>
<path opacity="0.1" d="M118.112 238.367C117.018 239.006 115.895 239.605 114.743 240.163C112.886 241.064 110.976 241.852 109.024 242.521C107.243 243.135 105.428 243.648 103.589 244.058C102.311 244.346 101.032 244.581 99.7511 244.761C98.161 244.989 96.5749 245.139 94.9926 245.21C75.9744 235.777 58.9005 224.238 44.3298 211.06C44.1212 210.502 43.9362 209.94 43.7355 209.37C40.0003 198.186 40.0639 186.085 43.9165 174.941C34.1732 168.409 26.8971 158.811 23.2452 147.674C21.8322 143.421 80.7565 139.99 107.595 143.28L108.221 143.358C116.368 144.408 121.371 146.109 120.501 148.629C124.461 151.278 128.037 154.458 131.128 158.081C131.207 158.167 131.282 158.254 131.352 158.344C135.711 163.516 139.039 169.472 141.157 175.892C149.233 200.169 139.035 226.187 118.112 238.367Z" fill="black"/>
</g>
<path opacity="0.1" d="M150.434 91.0472C150.648 90.7428 150.766 90.3814 150.773 90.0096C150.773 87.7497 146.164 85.9222 140.48 85.9222C134.797 85.9222 130.196 87.7654 130.196 90.0096C130.204 90.4379 130.352 90.852 130.617 91.1887C124.292 91.8922 120.029 93.2166 120.029 94.7258C120.029 96.9818 129.475 98.8093 141.106 98.8093C152.737 98.8093 162.183 96.9818 162.183 94.7258C162.179 93.1066 157.393 91.7153 150.434 91.0472Z" fill="#6C63FF"/>
<path opacity="0.1" d="M313.742 8.13946C314.082 7.65347 314.27 7.07755 314.281 6.48484C314.281 2.90442 306.968 0 297.947 0C288.926 0 281.613 2.90442 281.613 6.48484C281.63 7.15624 281.866 7.80375 282.286 8.3281C272.242 9.44821 265.476 11.5469 265.476 13.9522C265.476 17.5326 280.432 20.4371 298.931 20.4371C317.43 20.4371 332.386 17.5326 332.386 13.9522C332.386 11.4015 324.786 9.19668 313.742 8.13946Z" fill="#6C63FF"/>
<path opacity="0.1" d="M182.677 8.13946C183.017 7.65347 183.204 7.07755 183.216 6.48484C183.216 2.90442 175.903 0 166.882 0C157.861 0 150.548 2.90442 150.548 6.48484C150.564 7.15624 150.801 7.80375 151.221 8.3281C141.176 9.44821 134.411 11.5469 134.411 13.9522C134.411 17.5326 149.387 20.4371 167.866 20.4371C186.345 20.4371 201.321 17.5326 201.321 13.9522C201.321 11.4015 193.721 9.19668 182.677 8.13946Z" fill="#6C63FF"/>
<path opacity="0.1" d="M141.267 41.9942C142.188 41.4637 143.424 41.9707 144.054 42.8235C144.683 43.6764 144.865 44.7886 145.022 45.8223C145.372 48.145 145.624 50.8136 144.058 52.5665C146.62 44.7965 154 38.8422 162.163 37.9736" stroke="#6C63FF" stroke-width="3" stroke-miterlimit="10"/>
<path opacity="0.1" d="M244.179 3.47036C244.77 3.12843 245.569 3.47036 245.974 4.00094C246.334 4.58429 246.546 5.24675 246.592 5.93067C246.816 7.42415 246.985 9.13772 245.974 10.2539C246.838 7.75954 248.387 5.55769 250.443 3.89909C252.499 2.2405 254.981 1.19183 257.605 0.872498" stroke="#6C63FF" stroke-width="3" stroke-miterlimit="10"/>
<path opacity="0.1" d="M311.876 76.1792C312.467 75.8372 313.266 76.1792 313.671 76.7097C314.032 77.2931 314.244 77.9556 314.289 78.6395C314.514 80.133 314.683 81.8465 313.671 82.9627C314.536 80.4683 316.084 78.2665 318.14 76.6079C320.197 74.9493 322.678 73.9006 325.302 73.5813" stroke="#6C63FF" stroke-width="3" stroke-miterlimit="10"/>
<path d="M215.365 25.5424C213.68 26.9494 212.491 28.7534 210.641 30.0228C208.414 31.5556 205.489 32.1373 202.77 32.9587C200.05 33.7801 197.259 35.0692 196.165 37.3055C195.236 39.2195 195.772 41.4401 194.984 43.3973C194.138 45.4764 191.942 46.9345 190.261 48.6127C186.94 51.9219 185.464 56.4731 186.326 60.7177C186.92 63.6536 188.545 66.3655 189.51 69.2306C190.69 72.7363 190.856 76.4111 191.021 80.0465C191.328 86.8733 191.631 93.7668 190.092 100.484C189.699 102.17 188.636 127.806 186.577 127.755C192.04 127.288 197.535 127.236 203.026 127.181L285.286 126.395C281.495 121.443 279.075 92.1791 278.272 86.3427C276.887 76.2814 280.24 66.2082 280.634 56.0801C280.689 54.7753 280.689 53.4351 280.149 52.2089C279.583 50.9237 278.449 49.8271 278.071 48.4948C277.528 46.5887 278.618 44.6353 278.654 42.6781C278.725 38.7479 274.718 35.7334 271.542 32.8211C268.479 30.0189 265.933 26.8354 262.772 24.1039C259.612 21.3725 255.641 19.0576 251.122 18.637C247.411 18.2951 243.723 19.258 240.169 20.2091C235.93 21.341 231.903 22.7716 227.404 22.7009C222.441 22.6144 219.383 23.0271 215.365 25.5424Z" fill="#2F2E41"/>
<g opacity="0.1">
<path d="M272.025 41.0235C272.14 41.4535 272.307 41.8679 272.521 42.2576C272.468 41.3733 272.254 40.5061 271.888 39.699C271.871 40.1448 271.917 40.5908 272.025 41.0235Z" fill="black"/>
<path d="M192.249 104.131L191.792 104.17C191.946 104.173 192.099 104.16 192.249 104.131Z" fill="black"/>
</g>
<path d="M277.669 245.76C277.168 246.148 276.568 246.391 275.938 246.463C265.874 248.527 255.719 250.287 245.458 250.845C236.405 251.341 227.325 250.897 218.269 250.452C209.212 250.008 200.164 249.56 191.324 247.733C194.986 240.368 197.293 232.406 198.133 224.226C198.505 220.636 198.595 217.022 198.404 213.418C198.375 212.985 198.323 212.553 198.247 212.125C197.826 209.539 196.787 205.793 197.731 203.923C198.944 201.517 203.6 201.439 205.875 200.991C209.74 200.232 213.625 199.599 217.525 199.069C233.005 196.966 248.642 196.487 264.24 196.019C266.334 195.956 268.829 196.098 269.92 197.886C270.53 198.888 270.498 200.138 270.467 201.313C270.396 203.857 270.421 206.401 270.542 208.945C271.089 220.227 273.507 231.339 277.697 241.83C278.217 243.115 278.693 244.797 277.669 245.76Z" fill="#FBBEBE"/>
<path d="M216.427 105.801C214.782 107.825 212.464 109.185 210.13 110.38C207.341 111.818 204.47 113.089 201.53 114.184C200.935 115.084 201.408 116.279 201.923 117.238C206.54 126.191 212.719 135.089 222.04 138.937C226.822 140.902 232.068 141.393 237.224 141.853C238.83 141.994 240.467 142.136 242.034 141.751C243.6 141.366 245.057 140.434 246.363 139.448C254.903 132.995 260.526 123.42 261.997 112.828C262.123 111.889 262.123 110.738 261.316 110.234C260.824 109.932 260.198 109.991 259.62 109.995C255.845 110.034 252.499 107.244 250.756 103.907C249.012 100.57 248.548 96.7224 248.119 92.9769C248.119 92.8944 225.928 92.4267 223.925 92.411C220.8 92.3834 219.769 92.749 219.465 95.9481C219.147 99.4775 218.753 102.924 216.427 105.801Z" fill="#FBBEBE"/>
<path opacity="0.1" d="M216.427 105.801C214.782 107.825 212.464 109.185 210.13 110.38C207.341 111.818 204.47 113.089 201.53 114.184C200.935 115.084 201.408 116.279 201.923 117.238C206.54 126.191 212.719 135.089 222.04 138.937C226.822 140.902 232.068 141.393 237.224 141.853C238.83 141.994 240.467 142.136 242.034 141.751C243.6 141.366 245.057 140.434 246.363 139.448C254.903 132.995 260.526 123.42 261.997 112.828C262.123 111.889 262.123 110.738 261.316 110.234C260.824 109.932 260.198 109.991 259.62 109.995C255.845 110.034 252.499 107.244 250.756 103.907C249.012 100.57 248.548 96.7224 248.119 92.9769C248.119 92.8944 225.928 92.4267 223.925 92.411C220.8 92.3834 219.769 92.749 219.465 95.9481C219.147 99.4775 218.753 102.924 216.427 105.801Z" fill="black"/>
<path d="M234.064 101.616C250.801 101.616 264.37 88.0665 264.37 71.3529C264.37 54.6394 250.801 41.0903 234.064 41.0903C217.326 41.0903 203.757 54.6394 203.757 71.3529C203.757 88.0665 217.326 101.616 234.064 101.616Z" fill="#FBBEBE"/>
<path d="M256.29 107.232C256.624 111.476 210.94 115.45 209.216 110.215C208.193 111.421 206.316 111.52 204.82 111.001C203.324 110.482 202.065 109.484 200.648 108.749C198.286 107.519 195.626 107.063 193.008 106.619C188.746 105.899 183.794 105.373 180.638 108.324C179.548 109.342 178.804 110.682 177.71 111.704C175.797 113.481 173.093 114.035 170.625 114.848C167.063 116.028 163.78 117.914 160.415 119.565C152.558 123.428 144.18 126.131 135.544 127.59C133.706 127.901 131.856 128.152 130.034 128.588C127.476 129.202 124.917 130.251 123.174 132.22C125.213 134.822 128.141 136.241 131.286 137.266L161.631 147.17C166.197 148.66 170.834 150.181 174.829 152.85C181.484 157.283 185.814 164.57 188.183 172.198C190.552 179.827 191.162 187.876 191.753 195.842C192.009 199.305 192.241 202.917 190.879 206.124C197.948 206.955 205.096 206.838 212.133 205.774C218.907 204.744 225.606 202.834 232.458 202.897C239.936 202.972 247.182 205.393 254.554 206.701C261.926 208.01 270.061 208.049 276.272 203.872C274.95 202.091 274.749 199.548 274.698 197.34L274.541 186.873C274.47 185.61 274.555 184.343 274.792 183.1C275.32 180.86 276.804 178.982 277.752 176.887C279.582 172.843 279.327 168.221 279.429 163.783C279.531 159.346 280.153 154.579 283.156 151.333C285.124 149.214 287.879 148.012 290.674 147.269C295.452 145.995 300.451 145.913 305.386 145.563C321.477 144.411 337.22 140.317 351.83 133.486C350.956 131.642 348.925 130.597 347.071 129.74C342.687 127.716 338.042 125.641 333.233 126.093C330.906 126.313 328.604 127.123 326.286 126.828C324.09 126.545 322.145 125.303 320.012 124.709C318.394 124.261 316.702 124.194 315.041 123.943C311.207 123.357 307.61 121.781 304.064 120.221L295.106 116.291C292.744 115.249 290.284 114.137 288.663 112.125C288.135 111.468 287.71 110.73 287.135 110.113C286.147 109.055 284.774 108.43 283.4 107.994C281.674 107.394 279.835 107.193 278.02 107.405C276.775 107.652 275.546 107.973 274.34 108.368C268.42 109.963 262.312 108.305 256.29 107.232Z" fill="url(#paint0_linear_399_527)"/>
<path d="M290.953 265.521C274.821 269.393 258.389 271.892 241.833 272.988H241.806H200.239H200.215C192.776 272.483 185.445 271.71 178.221 270.669C180.353 264.333 183.291 258.297 186.963 252.708C187.55 251.918 188.01 251.04 188.325 250.107C188.498 249.238 188.586 248.355 188.588 247.469C188.78 244.757 189.833 242.177 191.595 240.104C192.414 240.55 193.241 240.978 194.075 241.389C203.528 246.078 213.824 248.837 224.358 249.505C229.899 249.789 235.454 249.677 240.979 249.171C253.44 248.169 266.397 245.858 276.434 238.52C276.855 238.214 277.272 237.895 277.685 237.569C282.562 241.892 285.384 248.519 287.403 254.713C288.603 258.336 289.713 261.952 290.953 265.521Z" fill="#2F2E41"/>
<path opacity="0.1" d="M233.898 240.517C233.702 241.151 233.654 241.823 233.758 242.479C233.862 243.135 234.114 243.758 234.497 244.302C234.752 243.733 234.828 243.101 234.714 242.489C234.6 241.876 234.302 241.313 233.859 240.875L233.898 240.517Z" fill="black"/>
<path d="M216.679 113.469C218.206 112.636 219.855 111.897 221.595 111.873C224.208 111.85 226.546 113.445 228.483 115.206C230.273 116.821 231.892 118.614 233.316 120.559C234.024 121.522 234.701 122.579 234.808 123.77C234.914 124.961 234.261 126.301 233.096 126.584C232.36 126.708 231.604 126.555 230.974 126.156C228.282 124.678 226.286 121.294 223.232 121.624C221.138 121.848 219.721 123.794 218.576 125.554C217.557 127.126 216.525 128.742 216.069 130.558C215.612 132.373 215.833 134.488 217.1 135.855C218.084 136.928 219.521 137.428 220.863 137.986C223.831 139.212 226.549 140.974 228.88 143.181C230.01 144.258 231.084 145.539 231.242 147.112C231.399 148.684 230.207 150.413 228.648 150.303C227.945 150.193 227.282 149.905 226.723 149.466C223.905 147.607 221.028 145.657 217.722 144.974C214.357 144.278 210.881 144.974 207.489 145.492C203.768 146.048 200.029 146.443 196.271 146.679C195.156 146.807 194.027 146.734 192.938 146.463C189.222 145.315 188.14 140.595 188.573 137.184C189.033 133.537 191.721 132.707 194.532 130.896C202.435 125.731 208.299 118.028 216.679 113.469Z" fill="#FBBEBE"/>
<path d="M245.793 113.469C244.262 112.636 242.617 111.897 240.873 111.873C238.26 111.85 235.922 113.445 233.985 115.206C232.196 116.821 230.578 118.615 229.156 120.559C228.451 121.522 227.774 122.579 227.668 123.77C227.562 124.961 228.211 126.301 229.376 126.584C230.113 126.708 230.87 126.555 231.502 126.156C234.194 124.678 236.189 121.294 239.24 121.624C241.337 121.848 242.754 123.794 243.896 125.554C244.915 127.126 245.95 128.742 246.403 130.558C246.856 132.373 246.639 134.488 245.372 135.855C244.392 136.928 242.951 137.428 241.609 137.986C238.639 139.213 235.921 140.974 233.588 143.181C232.458 144.258 231.387 145.539 231.226 147.112C231.065 148.684 232.261 150.413 233.82 150.303C234.523 150.194 235.186 149.905 235.744 149.466C238.563 147.607 241.44 145.657 244.746 144.974C248.111 144.278 251.586 144.974 254.979 145.492C258.691 146.074 262.434 146.479 266.185 146.703C267.301 146.83 268.432 146.757 269.522 146.487C273.234 145.339 274.316 140.619 273.887 137.207C273.423 133.56 270.739 132.731 267.924 130.919C260.037 125.731 254.176 118.028 245.793 113.469Z" fill="#FBBEBE"/>
<path d="M213.109 60.419C214.872 57.6365 216.966 54.618 219.828 54.2958C223.823 53.8438 226.944 58.8312 230.919 59.4758C236.036 60.309 241.066 53.7691 245.875 56.1587C248.237 57.3378 250 60.6077 252.566 60.5448C254.342 60.5055 255.786 58.843 256.963 57.212C258.949 54.462 260.706 51.5544 262.217 48.5184C257.333 42.9257 250.229 41.6484 243.597 40.6304L232.446 38.9208C229.762 38.5081 227.03 38.0994 224.362 38.6693C221.949 39.1841 219.698 40.4811 217.513 41.8449C214.908 43.4798 208.78 46.1052 207.182 49.1472C206.068 51.2577 207.599 52.2403 209.035 54.3665C210.387 56.384 211.745 58.4015 213.109 60.419Z" fill="#2F2E41"/>
<path opacity="0.1" d="M196.22 128.726C191.383 129.69 186.444 130.042 181.519 129.772C179.587 129.669 177.647 129.469 175.722 129.65C173.4 129.87 171.168 130.636 168.905 131.194C157.18 134.075 144.927 131.261 132.958 129.681C130.845 129.402 128.684 129.162 126.59 129.571C124.673 129.944 122.902 130.841 121.206 131.803C118.457 133.364 115.826 135.123 113.334 137.066C110.725 139.102 108.091 141.696 107.91 144.993C107.753 147.831 109.485 150.444 111.583 152.374C117.25 157.613 125.665 159.189 133.254 157.77C136.139 157.232 138.953 156.304 141.869 155.982C144.857 155.652 147.875 155.982 150.879 155.841C156.979 155.569 162.82 153.451 168.744 151.977C177.994 149.677 187.562 148.928 197.058 149.761C196.976 149.796 196.886 149.813 196.796 149.81C196.706 149.808 196.618 149.785 196.538 149.744C196.458 149.703 196.388 149.645 196.333 149.574C196.278 149.502 196.239 149.42 196.22 149.332C195.523 147.414 195.488 145.327 195.5 143.287C195.531 138.339 195.763 133.655 196.22 128.726Z" fill="black"/>
<path d="M195.433 129.119C190.596 130.083 185.657 130.435 180.732 130.165C178.8 130.062 176.859 129.862 174.935 130.043C172.613 130.263 170.381 131.029 168.118 131.587C156.393 134.468 144.14 131.654 132.171 130.074C130.058 129.795 127.897 129.555 125.803 129.964C123.886 130.337 122.115 131.234 120.419 132.196C117.67 133.757 115.039 135.516 112.547 137.459C109.937 139.495 107.304 142.089 107.123 145.386C106.966 148.224 108.698 150.837 110.795 152.767C116.463 158.006 124.878 159.582 132.466 158.163C135.351 157.625 138.166 156.697 141.082 156.375C144.069 156.045 147.088 156.375 150.091 156.234C156.192 155.962 162.033 153.844 167.956 152.37C177.207 150.07 186.775 149.321 196.271 150.154C196.189 150.189 196.099 150.206 196.009 150.203C195.919 150.201 195.831 150.178 195.751 150.137C195.671 150.096 195.601 150.038 195.546 149.967C195.491 149.895 195.452 149.813 195.433 149.725C194.736 147.807 194.701 145.72 194.713 143.68C194.744 138.732 194.976 134.048 195.433 129.119Z" fill="url(#paint1_linear_399_527)"/>
<path opacity="0.1" d="M267.165 126.623C273.163 127.987 287.6 128.589 293.748 128.384C296.554 128.298 299.352 128.046 302.159 128.054C306.968 128.054 311.77 128.84 316.568 128.522C322.767 128.097 328.856 125.822 335.039 126.407C338.078 126.698 341.002 127.665 343.899 128.632C346.796 129.599 349.952 130.691 351.991 133.041C353.88 135.219 354.569 138.151 355.195 140.965C355.545 142.537 355.895 144.16 355.588 145.736C355.002 148.727 352.243 150.751 349.594 152.26C346.445 154.052 342.99 155.593 339.361 155.51C337.208 155.463 335.114 154.842 333.063 154.198C327.187 152.354 321.181 150.268 315.041 150.727C310.747 151.057 306.457 152.637 302.233 151.785C299.75 151.282 297.51 149.969 295.149 149.096C289.394 146.994 274.788 147.552 268.688 148.133C269.042 144.71 268.999 141.259 269.353 137.832C269.628 135.211 269.892 132.495 269.05 129.996C268.522 128.498 268.345 127.685 267.165 126.623Z" fill="black"/>
<path d="M267.558 127.409C273.556 128.773 287.993 129.375 294.141 129.17C296.947 129.084 299.746 128.832 302.552 128.84C307.362 128.84 312.164 129.626 316.961 129.308C323.161 128.883 329.249 126.608 335.433 127.193C338.471 127.484 341.396 128.451 344.292 129.418C347.189 130.385 350.346 131.477 352.385 133.827C354.274 136.005 354.963 138.937 355.588 141.751C355.939 143.323 356.289 144.946 355.982 146.522C355.395 149.513 352.636 151.537 349.988 153.046C346.839 154.838 343.383 156.379 339.754 156.296C337.601 156.249 335.507 155.628 333.457 154.984C327.581 153.14 321.574 151.054 315.434 151.513C311.14 151.844 306.85 153.423 302.627 152.571C300.143 152.068 297.904 150.755 295.542 149.882C289.788 147.78 275.182 148.338 269.081 148.919C269.436 145.496 269.392 142.046 269.746 138.618C270.022 135.997 270.286 133.281 269.443 130.782C268.916 129.284 268.739 128.471 267.558 127.409Z" fill="url(#paint2_linear_399_527)"/>
<path d="M205.021 67.5602C204.1 67.3205 203.745 66.1571 202.915 65.6894C202.085 65.2217 201.045 65.5912 200.447 66.2868C199.891 67.023 199.59 67.9196 199.589 68.8415C199.515 70.8295 200.058 72.7918 201.143 74.4603C202.228 76.1289 203.802 77.4223 205.65 78.1639C204.827 74.5863 204.51 70.9113 204.706 67.2458L205.021 67.5602Z" fill="#FBBEBE"/>
<path d="M263.103 67.5602C264.024 67.3205 264.374 66.1571 265.205 65.6894C266.035 65.2217 267.074 65.5912 267.672 66.2868C268.23 67.022 268.531 67.9192 268.531 68.8415C268.604 70.8295 268.062 72.7918 266.977 74.4603C265.892 76.1289 264.318 77.4223 262.469 78.1639C263.292 74.5863 263.61 70.9113 263.414 67.2458L263.103 67.5602Z" fill="#FBBEBE"/>
<g opacity="0.1">
<path d="M225.377 154.713C226.128 157.452 226.492 160.283 226.46 163.123C226.46 168.063 225.488 172.375 224.039 174.69C223.917 175.79 223.779 176.883 223.646 177.956C225.688 176.384 227.188 171.219 227.188 165.088C227.172 160.899 226.471 157.161 225.377 154.713Z" fill="black"/>
</g>
<g opacity="0.1">
<path d="M236.465 154.713C235.713 157.452 235.347 160.283 235.379 163.123C235.379 168.063 236.355 172.375 237.803 174.69C237.925 175.79 238.059 176.883 238.197 177.956C236.154 176.384 234.654 171.219 234.654 165.088C234.65 160.899 235.351 157.161 236.465 154.713Z" fill="black"/>
</g>
<path opacity="0.1" d="M256.931 55.2469C255.75 56.878 254.31 58.5404 252.535 58.5797C249.965 58.6426 248.205 55.3806 245.844 54.1936C241.054 51.8041 236.036 58.3439 230.887 57.5107C226.912 56.8662 223.803 51.8787 219.796 52.3307C216.935 52.653 214.841 55.6714 213.077 58.454C211.713 56.4391 210.35 54.4216 208.988 52.4015C208.201 51.2224 207.347 50.3774 206.965 49.5049C206.201 51.3757 207.634 52.3661 208.988 54.3666C210.342 56.367 211.712 58.4029 213.077 60.4191C214.841 57.6365 216.935 54.6181 219.796 54.2958C223.791 53.8438 226.912 58.8313 230.887 59.4758C236.004 60.309 241.034 53.7692 245.844 56.1587C248.205 57.3378 249.969 60.6077 252.535 60.5448C254.31 60.5055 255.754 58.8431 256.931 57.212C258.917 54.4621 260.674 51.5545 262.186 48.5184C261.973 48.2747 261.753 48.0389 261.528 47.811C260.171 50.3933 258.635 52.878 256.931 55.2469Z" fill="black"/>
</g>
<defs>
<linearGradient id="paint0_linear_399_527" x1="123.174" y1="207.484" x2="339.236" y2="207.484" gradientUnits="userSpaceOnUse">
<stop stop-color="#D807FA" stop-opacity="0.76"/>
<stop offset="1" stop-color="#FF0CBB"/>
</linearGradient>
<linearGradient id="paint1_linear_399_527" x1="107.113" y1="158.659" x2="191.361" y2="158.659" gradientUnits="userSpaceOnUse">
<stop stop-color="#D807FA" stop-opacity="0.76"/>
<stop offset="1" stop-color="#FF0CBB"/>
</linearGradient>
<linearGradient id="paint2_linear_399_527" x1="267.558" y1="156.3" x2="351.223" y2="156.3" gradientUnits="userSpaceOnUse">
<stop stop-color="#D807FA" stop-opacity="0.76"/>
<stop offset="1" stop-color="#FF0CBB"/>
</linearGradient>
<clipPath id="clip0_399_527">
<rect width="432" height="273" fill="white"/>
</clipPath>
</defs>
</svg>
