<svg width="292" height="247" viewBox="0 0 292 247" fill="none" xmlns="http://www.w3.org/2000/svg">
<g clip-path="url(#clip0_399_468)">
<path d="M237.811 119.211C237.811 122.682 237.665 126.117 237.374 129.518C237.145 132.172 236.832 134.803 236.436 137.409C236.015 140.169 235.499 142.896 234.888 145.59V145.593C234.488 147.365 234.05 149.123 233.572 150.867C232.185 155.936 230.461 160.906 228.41 165.744C227.964 166.796 227.504 167.841 227.029 168.879C225.232 172.81 223.221 176.639 221.003 180.347C214.784 190.762 207.021 200.167 197.981 208.241C197.002 209.113 196.01 209.971 195.005 210.814C173.66 228.691 146.719 238.465 118.905 238.422C53.235 238.422 0 185.05 0 119.211C0 53.3716 53.235 -0.000279594 118.905 -0.000279594C145.761 -0.0427335 171.833 9.07092 192.841 25.8443C193.825 26.6267 194.798 27.4266 195.757 28.2441C200.442 32.227 204.813 36.5654 208.834 41.2207H208.837C227.563 62.8621 237.853 90.5612 237.811 119.211Z" fill="#F2F2F2"/>
<path d="M35.1008 139.804C23.7737 133.045 15.2244 120.413 16.3343 107.245C26.6901 117.181 40.2179 123.126 54.5243 124.026C60.043 124.353 66.215 124.14 70.2773 127.899C72.8051 130.238 73.9817 133.76 74.1747 137.203C74.3677 140.646 73.6797 144.071 72.9952 147.451L73.2308 148.279C60.0493 148.329 46.4279 146.562 35.1008 139.804Z" fill="#E6E6E6"/>
<path d="M16.6103 107.23C21.1488 117.178 28.6981 125.439 38.1861 130.839C40.2258 131.984 42.3943 132.967 44.6987 133.423C46.9483 133.851 49.2709 133.666 51.4253 132.889C53.4486 132.205 55.4392 131.27 57.5931 131.091C59.8635 130.902 61.9653 131.781 63.6167 133.319C65.6372 135.201 66.8628 137.698 67.9766 140.182C69.2132 142.94 70.4542 145.825 72.8253 147.808C73.1126 148.049 72.7238 148.482 72.437 148.242C68.3117 144.791 67.6383 139.011 64.3408 134.947C62.8021 133.051 60.684 131.608 58.1678 131.646C55.9675 131.679 53.914 132.641 51.8713 133.351C49.7265 134.097 47.5779 134.448 45.3135 134.12C42.9972 133.784 40.7858 132.884 38.7259 131.796C34.073 129.296 29.8413 126.077 26.1857 122.259C21.9894 117.924 18.5638 112.901 16.0569 107.408C15.9018 107.068 16.4563 106.893 16.6103 107.23Z" fill="white"/>
<path d="M35.029 129.281C33.9091 130.754 32.3034 131.779 30.4987 132.175C28.6939 132.571 26.8077 132.31 25.1769 131.44C24.8475 131.263 25.1066 130.742 25.4364 130.919C26.9536 131.732 28.7106 131.974 30.3904 131.603C32.0702 131.231 33.5621 130.269 34.5969 128.891C34.8221 128.592 35.2529 128.983 35.029 129.281Z" fill="white"/>
<path d="M50.4451 133.371C49.9738 129.615 48.1076 126.174 45.2186 123.736C44.9321 123.495 45.3208 123.062 45.6069 123.303C48.6085 125.846 50.5434 129.43 51.0253 133.34C51.071 133.713 50.4906 133.742 50.4451 133.371Z" fill="white"/>
<path d="M22.7101 117.65C23.2618 117.171 23.6862 116.562 23.9451 115.877C24.2039 115.193 24.2892 114.454 24.1931 113.729C24.1428 113.357 24.7232 113.328 24.7733 113.698C24.8756 114.5 24.7805 115.315 24.4962 116.072C24.2118 116.829 23.747 117.504 23.1422 118.04C23.0894 118.095 23.0176 118.128 22.9414 118.132C22.8652 118.136 22.7903 118.111 22.732 118.062C22.675 118.01 22.6407 117.937 22.6366 117.86C22.6325 117.783 22.6589 117.708 22.7101 117.65Z" fill="white"/>
<path d="M52.9994 81.7327C53.0374 81.9641 53.0755 82.1954 53.1179 82.429C53.6454 85.5368 54.4238 88.5966 55.4455 91.578C55.5208 91.8098 55.6007 92.0435 55.6825 92.2726C58.2204 99.4293 62.0615 106.051 67.0106 111.802C68.9821 114.089 71.1242 116.222 73.4184 118.182C76.587 120.89 80.2374 123.573 82.269 127.069C82.485 127.432 82.6784 127.807 82.8482 128.193L74.2199 147.927C74.1779 147.962 74.1402 147.999 74.098 148.034L73.7894 148.838C73.6641 148.745 73.536 148.646 73.4107 148.553C73.3377 148.499 73.2667 148.442 73.1938 148.388C73.1457 148.351 73.0978 148.314 73.0523 148.283C73.0363 148.271 73.0204 148.258 73.0088 148.248C72.9634 148.217 72.9244 148.184 72.8834 148.155C72.1662 147.604 71.4516 147.046 70.7396 146.483C70.7352 146.481 70.7352 146.481 70.7326 146.474C65.3186 142.168 60.2156 137.37 56.0012 131.949C55.8744 131.786 55.7431 131.621 55.6203 131.449C53.7342 128.994 52.0513 126.39 50.5884 123.66C49.7922 122.163 49.0721 120.627 48.4308 119.057C46.7817 114.997 45.7797 110.702 45.4617 106.33C44.8291 97.6147 46.9838 88.7932 52.5679 82.23C52.7108 82.0622 52.8519 81.8985 52.9994 81.7327Z" fill="#E6E6E6"/>
<path d="M53.2296 81.8869C50.8797 92.5688 51.9466 103.722 56.2789 113.761C57.2201 115.906 58.3611 118 59.9271 119.755C61.4667 121.454 63.432 122.709 65.6189 123.389C67.6452 124.064 69.7958 124.519 71.6232 125.676C73.5493 126.896 74.7001 128.866 75.095 131.091C75.5781 133.813 75.0568 136.547 74.4543 139.203C73.7854 142.151 73.044 145.204 73.7461 148.218C73.8311 148.584 73.2608 148.695 73.1758 148.33C71.9544 143.085 74.8874 138.064 74.6951 132.828C74.6055 130.385 73.7809 127.954 71.749 126.466C69.9722 125.164 67.7548 124.693 65.6972 124.027C63.5367 123.328 61.6108 122.311 59.9999 120.682C58.3521 119.016 57.127 116.962 56.1353 114.851C53.9219 110.046 52.4759 104.921 51.8502 99.6659C51.103 93.6718 51.384 87.5937 52.6811 81.6946C52.7615 81.3296 53.3095 81.5242 53.2296 81.8869Z" fill="white"/>
<path d="M54.6943 110.611C52.9155 111.111 51.0174 110.961 49.3389 110.187C47.6604 109.414 46.3107 108.067 45.531 106.388C45.3744 106.048 45.8945 105.788 46.0513 106.128C46.7745 107.693 48.0318 108.947 49.5963 109.665C51.1608 110.382 52.9295 110.514 54.583 110.039C54.9425 109.936 55.0517 110.508 54.6943 110.611Z" fill="white"/>
<path d="M64.5465 123.182C66.4261 119.898 67.002 116.025 66.1595 112.334C66.0757 111.969 66.646 111.858 66.7297 112.223C67.5993 116.065 66.9918 120.095 65.0284 123.508C64.841 123.833 64.3602 123.506 64.5465 123.182Z" fill="white"/>
<path d="M51.8425 93.8884C52.571 93.8387 53.2757 93.6084 53.8934 93.2181C54.5111 92.8279 55.0225 92.2899 55.3816 91.6525C55.5648 91.3252 56.0454 91.6527 55.8635 91.9779C55.4634 92.6802 54.898 93.2737 54.2164 93.7064C53.5349 94.1391 52.7581 94.3978 51.9538 94.4601C51.8784 94.4723 51.8013 94.4553 51.738 94.4126C51.6747 94.3699 51.63 94.3046 51.613 94.23C51.5987 94.1542 51.6147 94.0758 51.6577 94.0119C51.7007 93.9479 51.7671 93.9035 51.8425 93.8884Z" fill="white"/>
<path d="M82.367 27.6297L96.9205 198.435L67.8135 200.629V29.8028C71.2819 27.5019 76.2606 27.1419 82.367 27.6297Z" fill="url(#paint0_linear_399_468)" fill-opacity="0.48"/>
<path d="M154.205 27.6297L139.652 198.435L168.759 200.629V29.8028C165.291 27.5019 160.312 27.1419 154.205 27.6297Z" fill="url(#paint1_linear_399_468)" fill-opacity="0.48"/>
<path d="M164.401 207.688H71.862C70.3781 207.687 68.9555 207.095 67.9062 206.043C66.857 204.991 66.2668 203.565 66.2651 202.077V32.3096C66.2668 30.8219 66.857 29.3957 67.9063 28.3437C68.9555 27.2918 70.3781 26.7001 71.862 26.6984H164.401C165.885 26.7001 167.307 27.2918 168.357 28.3437C169.406 29.3957 169.996 30.8219 169.998 32.3096V202.077C169.996 203.565 169.406 204.991 168.357 206.043C167.307 207.095 165.885 207.687 164.401 207.688ZM71.862 28.561C70.8707 28.5621 69.9203 28.9574 69.2194 29.6602C68.5184 30.3629 68.1241 31.3157 68.123 32.3096V202.077C68.1241 203.071 68.5184 204.024 69.2193 204.726C69.9203 205.429 70.8707 205.825 71.862 205.826H164.401C165.392 205.825 166.343 205.429 167.044 204.726C167.745 204.024 168.139 203.071 168.14 202.077V32.3096C168.139 31.3157 167.745 30.3629 167.044 29.6602C166.343 28.9574 165.392 28.5621 164.401 28.561L71.862 28.561Z" fill="#CCCCCC"/>
<path d="M169.069 54.9489H67.1938V56.8116H169.069V54.9489Z" fill="#CCCCCC"/>
<path d="M169.069 85.9935H67.1938V87.8562H169.069V85.9935Z" fill="#CCCCCC"/>
<path d="M100.253 27.6297H98.3955V112.381H100.253V27.6297Z" fill="#CCCCCC"/>
<path d="M137.867 27.6297H136.009V112.381H137.867V27.6297Z" fill="#CCCCCC"/>
<path d="M180.68 212.811H58.6784C56.4611 212.811 54.3345 211.928 52.7666 210.356C51.1987 208.784 50.3179 206.652 50.3179 204.429C50.3179 202.206 51.1987 200.074 52.7666 198.502C54.3345 196.93 56.4611 196.047 58.6784 196.047H180.68C182.898 196.047 185.024 196.93 186.592 198.502C188.16 200.074 189.041 202.206 189.041 204.429C189.041 206.652 188.16 208.784 186.592 210.356C185.024 211.928 182.898 212.811 180.68 212.811Z" fill="#F40E8A" fill-opacity="0.58"/>
<path d="M169.069 108.035H67.8135V114.244H169.069V108.035Z" fill="#CCCCCC"/>
<path d="M100.542 127.795L100.413 127.733C93.5108 124.39 84.4716 124.393 71.1039 127.744L70.9612 127.78L70.9184 127.639C69.5043 122.99 67.9024 117.725 70.9118 115.134C70.954 107.533 77.6046 101.361 85.7736 101.361C93.9409 101.361 100.591 107.53 100.635 115.129C105.112 118.561 102.979 123.632 100.614 127.672L100.542 127.795Z" fill="#2F2E41"/>
<path d="M142.967 111.518C142.844 112.134 142.587 112.716 142.215 113.221C141.842 113.727 141.364 114.145 140.814 114.445C140.263 114.745 139.654 114.921 139.028 114.96C138.403 114.998 137.776 114.899 137.193 114.669L112.8 139.245L110.624 131.614L134.851 108.791C135.302 107.835 136.087 107.078 137.057 106.663C138.028 106.248 139.117 106.204 140.117 106.541C141.118 106.877 141.96 107.569 142.486 108.487C143.011 109.404 143.182 110.483 142.967 111.518Z" fill="#FFB6B6"/>
<path d="M82.6789 135.178C82.6789 135.178 80.4658 140.206 85.9266 143.307C91.3875 146.408 110.473 142.124 113.57 141.526C116.667 140.928 128.234 123.574 128.234 123.574L126.598 115.063L111.258 128.413L82.6789 135.178Z" fill="url(#paint2_linear_399_468)"/>
<path d="M78.6512 162.984L78.9609 168.883C78.9609 168.883 78.0469 174.108 78.7986 175.235C79.5446 176.357 99.9013 176.499 99.9013 176.499C99.9013 176.499 101.246 169.229 102.405 162.866L78.6512 162.984Z" fill="#FFB6B6"/>
<path d="M137.179 240.975L141.435 240.113L140.217 222.879L133.936 224.151L137.179 240.975Z" fill="#FFB6B6"/>
<path d="M143.275 218.547L147.232 216.764L142.099 200.274L136.26 202.907L143.275 218.547Z" fill="#FFB6B6"/>
<path d="M146.721 209.256L139.272 213.485L120.9 183.886C108.002 192.598 95.3903 196.77 82.6763 198.996C78.3777 199.763 73.9951 199.374 73.1699 194.988C73.1313 194.783 73.1005 194.577 73.0776 194.369C72.57 189.578 78.5145 183.437 79.2701 177.575L95.5393 176.596L97.5455 179.175L116.36 167.578C120.144 165.246 125.12 166.507 127.476 170.395C127.6 170.601 127.715 170.811 127.822 171.026L146.721 209.256Z" fill="#2F2E41"/>
<path d="M142.162 229.167L133.638 229.961L118.182 198.271C102.856 200.913 88.3973 201.76 75.8909 198.563C71.6566 197.496 69.0683 193.112 70.1098 188.772C70.1584 188.57 70.2147 188.369 70.2786 188.17C71.7754 183.592 75.6934 180.352 78.7803 175.317L101.328 175.66L98.8096 184.372L120.713 181.53C125.118 180.959 129.141 184.155 129.698 188.67C129.728 188.908 129.747 189.148 129.756 189.388L142.162 229.167Z" fill="#2F2E41"/>
<path d="M87.455 123.29C92.5115 123.29 96.6106 119.18 96.6106 114.111C96.6106 109.041 92.5115 104.931 87.455 104.931C82.3984 104.931 78.2993 109.041 78.2993 114.111C78.2993 119.18 82.3984 123.29 87.455 123.29Z" fill="#FFB6B6"/>
<path d="M82.0877 126.603L90.4826 127.594C90.8366 127.635 91.1689 127.787 91.433 128.027C91.6971 128.267 91.8799 128.584 91.956 128.933L93.2911 135.057L101.613 144.883C101.613 144.883 104.602 150.501 103.481 156.868C102.361 163.235 101.868 167.966 101.868 167.966C101.868 167.966 79.5435 176.358 78.7964 175.234C78.0493 174.11 77.8068 169.007 77.8068 169.007L74.8184 135.675C74.8184 135.675 78.1804 130.057 80.0482 130.057C81.2537 130.016 81.099 127.296 82.0877 126.603Z" fill="url(#paint3_linear_399_468)"/>
<path d="M102.095 170.015C103.272 170.015 104.227 168.867 104.227 167.451C104.227 166.034 103.272 164.886 102.095 164.886C100.918 164.886 99.9634 166.034 99.9634 167.451C99.9634 168.867 100.918 170.015 102.095 170.015Z" fill="#6C63FF"/>
<path d="M135.067 236.537L141.556 233.277L142.779 236.138L150.983 237.8C151.388 237.882 151.757 238.092 152.035 238.399C152.313 238.706 152.485 239.094 152.528 239.506C152.57 239.918 152.48 240.334 152.271 240.691C152.061 241.048 151.743 241.329 151.363 241.492L143.436 244.899L140.86 242.657L141.536 245.716L138.547 247L135.067 236.537Z" fill="#2F2E41"/>
<path d="M141.418 217.175L147.849 213.801L149.121 216.639L157.354 218.157C157.761 218.232 158.133 218.435 158.416 218.737C158.699 219.039 158.879 219.424 158.928 219.836C158.978 220.247 158.895 220.664 158.692 221.025C158.489 221.386 158.176 221.672 157.798 221.842L149.932 225.388L147.317 223.192L148.047 226.238L145.081 227.575L141.418 217.175Z" fill="#2F2E41"/>
<path d="M82.2243 111.231C79.8054 111.235 77.4447 110.489 75.466 109.094L75.3999 109.047V108.966C75.4026 106.621 76.3332 104.372 77.9876 102.713C79.6421 101.054 81.8852 100.121 84.2249 100.119H87.9407C90.2804 100.121 92.5236 101.054 94.178 102.713C95.8324 104.372 96.7631 106.621 96.7657 108.966C96.7633 109.503 96.5518 110.018 96.1764 110.401C95.8011 110.784 95.2914 111.005 94.756 111.017L82.4331 111.229C82.3635 111.231 82.2937 111.231 82.2243 111.231Z" fill="#2F2E41"/>
<path d="M97.385 107.267C98.5698 106.581 98.7678 104.701 97.8272 103.068C96.8866 101.435 95.1636 100.667 93.9788 101.352C92.794 102.038 92.596 103.918 93.5366 105.552C94.4772 107.185 96.2001 107.953 97.385 107.267Z" fill="#2F2E41"/>
<path d="M78.8547 105.445C80.1849 104.112 80.4789 102.244 79.5115 101.274C78.5441 100.304 76.6816 100.599 75.3514 101.933C74.0212 103.266 73.7271 105.134 74.6945 106.104C75.6619 107.074 77.5245 106.779 78.8547 105.445Z" fill="#2F2E41"/>
<path d="M159.884 189.372H150.745C150.539 189.372 150.335 189.416 150.148 189.503C149.961 189.59 149.795 189.716 149.662 189.874C149.325 189.812 148.978 189.831 148.65 189.929C148.321 190.028 148.021 190.203 147.773 190.44C147.525 190.678 147.337 190.97 147.224 191.295C147.111 191.619 147.077 191.966 147.123 192.306C147.17 192.647 147.296 192.971 147.492 193.253C147.688 193.535 147.948 193.766 148.25 193.928C148.552 194.09 148.889 194.177 149.231 194.184C149.574 194.19 149.913 194.114 150.221 193.964L150.979 196.433C151.069 196.726 151.25 196.982 151.496 197.164C151.741 197.346 152.039 197.444 152.344 197.444H158.285C158.591 197.444 158.888 197.346 159.134 197.164C159.379 196.982 159.56 196.726 159.65 196.433L161.249 191.225C161.314 191.011 161.329 190.784 161.292 190.563C161.254 190.342 161.165 190.133 161.033 189.953C160.9 189.773 160.727 189.627 160.527 189.526C160.328 189.425 160.107 189.372 159.884 189.372ZM149.276 193.563C148.866 193.563 148.472 193.4 148.182 193.108C147.891 192.817 147.728 192.423 147.728 192.011C147.728 191.599 147.891 191.204 148.182 190.913C148.472 190.622 148.866 190.459 149.276 190.459C149.305 190.459 149.331 190.465 149.359 190.467C149.297 190.717 149.305 190.979 149.381 191.225L150.035 193.356C149.804 193.49 149.543 193.561 149.276 193.563Z" fill="#3F3D56"/>
<path d="M119.076 182.633C118.452 182.691 117.823 182.611 117.233 182.399C116.643 182.186 116.107 181.847 115.662 181.405C115.217 180.962 114.875 180.427 114.658 179.837C114.442 179.248 114.357 178.618 114.41 177.991L83.9282 161.615L90.5952 157.335L119.353 174.055C120.397 174.214 121.345 174.751 122.02 175.564C122.695 176.377 123.049 177.41 123.015 178.468C122.981 179.525 122.561 180.533 121.835 181.301C121.109 182.068 120.128 182.542 119.076 182.633Z" fill="#FFB6B6"/>
<path d="M79.172 131.519C79.172 131.519 73.7325 130.837 72.3364 136.971C70.9404 143.105 80.5099 160.207 81.97 163.009C83.4301 165.812 103.331 171.942 103.331 171.942L110.993 167.929L93.8356 157.027L79.172 131.519Z" fill="url(#paint4_linear_399_468)"/>
<path d="M117.512 106.173H119.37C120.273 106.173 121.14 106.532 121.779 107.173C122.417 107.813 122.776 108.682 122.776 109.587H114.106C114.106 108.682 114.465 107.813 115.104 107.173C115.742 106.532 116.609 106.173 117.512 106.173Z" fill="#CCCCCC"/>
<path d="M58.5985 42.4583C68.764 42.4583 77.0047 34.1964 77.0047 24.0048C77.0047 13.8132 68.764 5.55134 58.5985 5.55134C48.4331 5.55134 40.1924 13.8132 40.1924 24.0048C40.1924 34.1964 48.4331 42.4583 58.5985 42.4583Z" fill="#FF6584"/>
<path d="M114.954 23.0432C110.083 17.92 104.426 13.2464 97.7283 10.7767C95.8628 10.0858 93.9284 9.59845 91.9588 9.32307C91.9429 9.3209 91.9279 9.32411 91.9122 9.32283C91.8801 9.31455 91.8476 9.30816 91.8149 9.30368C89.0601 8.95183 86.2639 9.12108 83.5713 9.80264C82.2546 10.1339 80.97 10.5825 79.733 11.1432C78.4916 11.7504 77.2888 12.4338 76.1314 13.1896C73.6816 14.6598 70.9843 15.6686 68.1726 16.1663C66.7613 16.421 65.3318 16.5617 63.898 16.5869C62.6539 16.6119 61.4807 16.6553 60.302 17.1059C59.0429 17.5806 57.9119 18.3437 56.9992 19.3345C56.0865 20.3253 55.4175 21.5162 55.0454 22.8122C55.0167 22.9276 55.0254 23.0492 55.0701 23.1593C55.1148 23.2695 55.1933 23.3626 55.2942 23.4251C55.613 23.6541 55.9239 23.9138 56.2589 24.1178C56.5569 24.2546 56.8752 24.3416 57.2012 24.3755C57.7338 24.4882 58.2671 24.5975 58.8011 24.7036C60.7682 25.0944 62.7435 25.4403 64.727 25.7413C68.7405 26.3505 72.7757 26.7796 76.8325 27.0286C84.9596 27.5221 93.1145 27.2764 101.197 26.2944C105.74 25.7428 110.252 24.9604 114.715 23.9503C114.806 23.9238 114.888 23.8744 114.953 23.8068C115.019 23.7391 115.066 23.6557 115.09 23.5644C115.114 23.4731 115.114 23.3772 115.09 23.2858C115.067 23.1945 115.02 23.1109 114.954 23.0432Z" fill="#E6E6E6"/>
<path d="M59.472 35.3813C57.6064 34.6905 55.6721 34.2031 53.7024 33.9277C53.6866 33.9256 53.6716 33.9288 53.6558 33.9275C53.6238 33.9192 53.5913 33.9128 53.5585 33.9083C50.8037 33.5565 48.0075 33.7257 45.315 34.4073C43.9982 34.7386 42.7137 35.1872 41.4767 35.7478C40.2353 36.355 39.0324 37.0385 37.875 37.7942C35.4252 39.2644 32.728 40.2733 29.9163 40.771C28.5049 41.0257 27.0755 41.1664 25.6417 41.1916C24.3976 41.2166 23.2243 41.2599 22.0456 41.7105C20.7865 42.1852 19.6555 42.9484 18.7428 43.9391C17.8302 44.9299 17.1611 46.1208 16.7891 47.4168C16.7604 47.5322 16.769 47.6538 16.8137 47.764C16.8585 47.8741 16.9369 47.9672 17.0378 48.0298C17.3567 48.2587 17.6675 48.5185 18.0025 48.7224C18.3005 48.8592 18.6188 48.9462 18.9448 48.9801C19.4775 49.0928 20.0107 49.2022 20.5447 49.3082C22.5118 49.699 24.4871 50.0449 26.4706 50.346C30.4841 50.9551 34.5193 51.3842 38.5762 51.6332C46.7032 52.1267 54.8582 51.881 62.941 50.899C67.4836 50.3474 71.9953 49.5651 76.4588 48.5549C76.5492 48.5285 76.6312 48.479 76.6969 48.4114C76.7626 48.3438 76.8098 48.2603 76.8338 48.169C76.8578 48.0777 76.8579 47.9818 76.8341 47.8905C76.8102 47.7992 76.7633 47.7156 76.6977 47.6478C71.8266 42.5247 66.1692 37.851 59.472 35.3813Z" fill="#E6E6E6"/>
<path d="M192.206 172.949L178.052 154.307L166.883 160.638L190.55 188.815L192.206 172.949Z" fill="#3F3D56"/>
<path d="M224.812 142.644C225.126 150.456 226.334 158.207 228.41 165.744C227.964 166.796 227.504 167.842 227.029 168.88C225.232 172.81 223.221 176.639 221.003 180.347C214.784 190.762 207.021 200.167 197.981 208.241C197.002 209.113 196.01 209.971 195.005 210.815C189.274 202.892 186.18 194.15 184.957 185.153C184.802 184.011 184.675 182.856 184.579 181.707V181.701C184.344 178.909 184.269 176.107 184.353 173.306C184.356 173.083 184.362 172.856 184.372 172.63C184.48 169.637 184.75 166.638 185.155 163.667V163.664C185.202 163.323 185.248 162.981 185.301 162.64C185.449 161.615 185.617 160.591 185.799 159.572C186.863 153.7 188.346 147.911 190.24 142.253V142.249C190.292 142.085 190.345 141.923 190.404 141.762C190.608 141.147 190.816 140.539 191.029 139.93C191.043 139.883 191.059 139.836 191.079 139.791C191.354 138.996 191.636 138.207 191.924 137.425C192.002 137.208 192.082 136.991 192.166 136.773C192.491 135.901 192.822 135.035 193.16 134.181C193.265 133.908 193.373 133.635 193.482 133.365C193.565 133.157 193.646 132.949 193.732 132.744V132.741C194.225 131.52 194.723 130.324 195.228 129.152C196.643 125.855 198.099 122.753 199.517 119.894L199.52 119.891C205.406 108.054 210.757 100.367 210.757 100.367L230.85 106.887C228.453 111.149 226.599 117.436 225.583 124.852C224.801 130.747 224.542 136.7 224.812 142.641L224.812 142.644Z" fill="#3F3D56"/>
<path d="M191.416 140.747C191.299 140.471 191.165 140.201 191.029 139.93C190.323 138.559 189.413 137.303 188.332 136.205C188.171 136.041 188.004 135.876 187.83 135.721C185.965 133.998 183.697 132.775 181.236 132.164C178.774 131.553 176.199 131.574 173.748 132.225L173.735 132.231L173.642 132.256L173.664 132.362C173.757 132.854 173.892 133.337 174.067 133.805C174.113 133.933 174.166 134.054 174.218 134.175C174.24 134.231 174.268 134.28 174.293 134.336C174.293 134.336 174.29 134.339 174.296 134.339C174.296 134.342 174.299 134.346 174.299 134.349C174.358 134.463 174.413 134.581 174.475 134.693C174.348 134.572 174.228 134.448 174.11 134.321C173.995 134.203 173.89 134.079 173.785 133.954C173.424 133.532 173.098 133.082 172.809 132.607L172.76 132.523L172.673 132.557C171.505 132.963 170.39 133.511 169.354 134.187L169.242 134.262C168.451 134.782 167.559 135.131 166.625 135.284C165.691 135.437 164.736 135.391 163.82 135.15C162.377 134.777 160.873 134.708 159.402 134.949C157.931 135.19 156.526 135.735 155.277 136.55C154.449 137.091 153.701 137.745 153.054 138.493C152.998 138.558 152.942 138.627 152.887 138.692C152.769 138.835 152.657 138.98 152.549 139.13C151.385 140.689 150.671 142.54 150.484 144.479L150.477 144.55L150.536 144.59C151.584 145.31 152.769 145.805 154.017 146.043C153.233 146.153 152.439 146.173 151.651 146.102H151.648C151.29 146.072 150.935 146.023 150.583 145.953L150.518 145.941H150.515L150.434 145.925L150.446 146.074C150.539 147.971 151.134 149.809 152.171 151.398L152.202 151.442C152.214 151.458 152.224 151.474 152.233 151.491C152.672 152.165 153.038 152.884 153.323 153.637C154.047 155.506 154.206 157.548 153.781 159.507C153.3 161.603 153.46 163.796 154.24 165.799C155.02 167.802 156.384 169.524 158.154 170.739C159.708 171.811 161.52 172.449 163.402 172.586C163.659 172.608 163.919 172.62 164.179 172.62C165.668 172.625 167.142 172.317 168.505 171.717L168.555 171.698L168.567 171.643C168.829 170.794 169.198 169.983 169.663 169.227C169.511 169.823 169.434 170.435 169.434 171.05V171.254L169.611 171.152C169.762 171.062 169.917 170.966 170.057 170.876C170.893 170.328 171.651 169.668 172.308 168.914C172.565 168.616 172.825 168.327 173.097 168.038L173.1 168.035C173.63 167.47 174.19 166.918 174.773 166.39C176.011 165.275 177.336 164.26 178.736 163.357C180.135 162.456 181.597 161.659 183.111 160.973H183.115C183.285 160.892 183.458 160.814 183.629 160.74C184.383 160.411 185.109 160.02 185.799 159.572C185.824 159.557 185.846 159.544 185.867 159.529C188.861 157.564 191.061 154.598 192.077 151.158C193.094 147.719 192.859 144.029 191.416 140.747Z" fill="#6C63FF"/>
<path opacity="0.15" d="M154.291 163.915C154.207 164.292 154.143 164.674 154.1 165.059C153.523 163.232 153.44 161.285 153.858 159.416C153.922 159.13 153.97 158.84 154.008 158.549C154.58 160.28 154.678 162.133 154.291 163.915Z" fill="black"/>
<path opacity="0.15" d="M154.526 150.449C153.609 150.576 152.678 150.581 151.76 150.462C151.519 150.007 151.312 149.535 151.139 149.051C152.161 149.743 153.314 150.218 154.526 150.449Z" fill="black"/>
<path opacity="0.15" d="M151.687 146.002C151.348 146.87 151.123 147.779 151.017 148.705C150.735 147.823 150.568 146.908 150.521 145.983L150.514 145.834L150.66 145.862C151 145.926 151.342 145.973 151.687 146.002Z" fill="black"/>
<path opacity="0.15" d="M155.357 136.457C156.605 135.642 158.009 135.096 159.479 134.855C160.949 134.614 162.453 134.682 163.895 135.056C164.811 135.298 165.767 135.345 166.702 135.192C167.637 135.039 168.529 134.691 169.32 134.169L169.432 134.095C170.467 133.417 171.581 132.868 172.75 132.462L172.839 132.431L172.888 132.511C173.35 133.277 173.909 133.979 174.552 134.599C174.162 133.87 173.888 133.083 173.742 132.268L173.721 132.16L173.826 132.132C176.125 131.522 178.536 131.466 180.861 131.967C183.186 132.469 185.359 133.515 187.204 135.019C189.049 136.523 190.514 138.444 191.478 140.623C192.442 142.803 192.878 145.18 192.751 147.561C192.263 145.62 191.396 143.796 190.2 142.193C189.004 140.59 187.502 139.241 185.782 138.225C184.062 137.208 182.158 136.544 180.181 136.27C178.203 135.997 176.19 136.12 174.26 136.631L174.154 136.659L174.176 136.767C174.322 137.582 174.596 138.369 174.986 139.099C174.343 138.478 173.783 137.776 173.322 137.011L173.273 136.93L173.184 136.961C172.015 137.368 170.901 137.916 169.866 138.594L169.754 138.668C168.963 139.19 168.071 139.539 167.136 139.691C166.201 139.844 165.245 139.798 164.329 139.555C161.932 138.931 159.393 139.161 157.146 140.204C154.899 141.247 153.082 143.039 152.005 145.275C151.526 145.044 151.061 144.784 150.614 144.496L150.553 144.457L150.56 144.386C150.714 142.788 151.226 141.245 152.056 139.873C152.886 138.5 154.015 137.333 155.357 136.457Z" fill="black"/>
<path d="M270.473 57.1345L270.179 56.9389L269.965 57.2183C268.311 59.3056 266.996 61.6408 266.066 64.1381C266.195 61.2611 266.696 58.4131 267.559 55.6661L267.652 55.3774L267.386 55.2252C263.921 53.2584 260.229 51.7237 256.393 50.6555L255.975 50.5437C253.035 49.7349 250.298 48.3138 247.942 46.3731C245.586 44.4325 243.665 42.0158 242.304 39.2807C239.14 33.0037 234.143 27.8432 227.977 24.4879C221.812 21.1326 214.773 19.7421 207.8 20.5019H207.797C207.722 20.5081 207.645 20.5174 207.571 20.5267C207.444 20.5391 207.32 20.5546 207.196 20.5701C206.942 20.6043 206.694 20.6384 206.446 20.6757C206.236 20.7067 206.022 20.7409 205.812 20.7781C205.7 20.7937 205.592 20.8123 205.483 20.834C205.375 20.8527 205.264 20.8713 205.155 20.893H205.152C203.073 21.2873 201.035 21.8745 199.064 22.647H199.061V22.6501L198.563 22.8457C198.049 23.0568 197.539 23.2803 197.033 23.5163C196.919 23.569 196.807 23.6249 196.693 23.6777C196.662 23.6932 196.627 23.7087 196.597 23.7274C196.271 23.8826 195.949 24.044 195.63 24.2148C195.584 24.2365 195.537 24.2613 195.491 24.2862L195.194 24.4445C194.54 24.7984 193.898 25.174 193.268 25.5714C193.215 25.6025 193.166 25.6335 193.113 25.6677C193.057 25.7049 192.998 25.7422 192.943 25.7794C192.909 25.798 192.875 25.8229 192.84 25.8446C192.744 25.9036 192.652 25.9657 192.559 26.0309C192.373 26.152 192.187 26.2761 192.004 26.4034C191.816 26.5307 191.63 26.6642 191.444 26.7977L191.258 26.9312L191.292 27.1609C191.323 27.3503 191.351 27.5396 191.385 27.7259C191.416 27.9122 191.447 28.0953 191.481 28.2785C191.534 28.5859 191.593 28.8901 191.651 29.185C191.692 29.3806 191.729 29.5731 191.772 29.7624C191.812 29.958 191.856 30.1536 191.902 30.3492C191.992 30.7528 192.088 31.1439 192.19 31.5289C192.24 31.7214 192.292 31.9138 192.348 32.1032C192.379 32.2181 192.41 32.3329 192.444 32.4447C192.469 32.5223 192.494 32.5999 192.518 32.6775C192.525 32.7024 192.531 32.7303 192.54 32.7582C192.547 32.7845 192.555 32.8105 192.565 32.8359C192.599 32.9507 192.633 33.0625 192.667 33.1711C192.686 33.2301 192.704 33.2891 192.726 33.345C192.769 33.4785 192.816 33.6151 192.862 33.7455C192.912 33.8945 192.964 34.0435 193.017 34.1894C193.029 34.2267 193.042 34.2608 193.054 34.2981C193.063 34.326 193.073 34.3539 193.085 34.3819C193.097 34.4129 193.11 34.4471 193.122 34.4781C193.175 34.6178 193.228 34.7606 193.283 34.9003C193.302 34.95 193.32 35.0028 193.342 35.0524C193.844 36.3172 194.461 37.533 195.185 38.6847C194.383 37.9955 193.61 37.2649 192.868 36.4929C191.723 35.2993 190.667 34.0219 189.71 32.6713C189.632 32.5658 189.555 32.4571 189.484 32.3485C189.338 32.1405 189.196 31.9325 189.057 31.7214C188.908 31.504 188.765 31.2774 188.626 31.0539C188.533 30.9049 188.44 30.7528 188.351 30.6037C188.261 30.4609 188.177 30.3212 188.097 30.1784L187.855 29.7624H187.852V29.7655L187.511 30.1008C187.375 30.2343 187.239 30.3678 187.106 30.5013C182.944 34.6995 179.929 39.9006 178.352 45.6045L178.306 45.7752L178.259 45.9522C178.169 46.2688 178.079 46.5762 177.983 46.8897V46.8928C177.891 47.2033 177.792 47.5137 177.686 47.818C177.59 48.1067 177.491 48.3923 177.386 48.6779C177.352 48.7741 177.315 48.8704 177.274 48.9666C177.209 49.1529 177.138 49.336 177.067 49.5223C177.033 49.6061 176.999 49.6931 176.965 49.7769C176.881 49.9818 176.798 50.1867 176.714 50.3885C176.702 50.4195 176.686 50.4537 176.671 50.4847C176.646 50.5468 176.618 50.6089 176.593 50.6679C176.528 50.8169 176.46 50.969 176.395 51.118C176.349 51.2142 176.305 51.3136 176.262 51.4098C176.243 51.4533 176.222 51.4968 176.203 51.5402C176.088 51.7886 175.971 52.0338 175.847 52.276C175.708 52.5616 175.565 52.8472 175.413 53.1266C175.28 53.3874 175.141 53.642 174.995 53.8965C174.745 54.3467 174.481 54.7937 174.209 55.2283C174.104 55.396 173.998 55.5636 173.89 55.7313C173.865 55.7716 173.84 55.812 173.816 55.8492C173.726 55.9951 173.633 56.1348 173.537 56.2776C173.472 56.3739 173.407 56.4701 173.342 56.5632C173.233 56.7309 173.119 56.8923 173.001 57.0506C172.97 57.1003 172.936 57.1469 172.902 57.1935C172.729 57.4356 172.555 57.6715 172.379 57.9075C172.373 57.9106 172.373 57.9137 172.37 57.9168C172.363 57.9168 172.363 57.9199 172.36 57.923C172.283 58.0254 172.205 58.1279 172.125 58.2272C172.02 58.3731 171.905 58.516 171.791 58.6557C171.605 58.8916 171.41 59.1306 171.211 59.3635C171.205 59.3697 171.202 59.3759 171.196 59.379C170.17 60.5876 169.059 61.7205 167.87 62.7691C167.849 62.7877 167.833 62.8063 167.812 62.8218C167.644 62.9678 167.477 63.1137 167.304 63.2565C167.232 63.3155 167.161 63.3744 167.09 63.4334C166.972 63.5328 166.852 63.6321 166.734 63.7221C166.72 63.7364 166.704 63.7489 166.687 63.7594C166.582 63.8463 166.48 63.927 166.375 64.0077C166.248 64.1102 166.121 64.2064 165.991 64.3027C165.378 64.7683 164.748 65.2081 164.102 65.6221C164.006 65.6873 163.904 65.7525 163.805 65.8145C163.746 65.8518 163.687 65.8891 163.631 65.9201C163.396 66.066 163.161 66.2088 162.925 66.3454C162.69 66.4851 162.448 66.6186 162.21 66.749C161.699 67.0284 161.194 67.3202 160.702 67.6244C160.454 67.7797 160.207 67.9349 159.962 68.0932C158.99 68.7265 158.053 69.4043 157.153 70.1266C156.253 70.8494 155.391 71.6171 154.568 72.427C154.466 72.5264 154.363 72.6288 154.261 72.7344C154.057 72.9362 153.859 73.1411 153.67 73.346C153.366 73.6595 153.075 73.9824 152.787 74.3083C151.269 76.0358 149.925 77.9097 148.774 79.9026C148.197 80.8977 147.672 81.9225 147.201 82.9729C146.845 83.7583 146.52 84.5624 146.226 85.3757C146.031 85.919 145.848 86.4675 145.678 87.0211C145.594 87.2974 145.514 87.5768 145.436 87.8562C145.173 88.8031 144.953 89.7592 144.774 90.7185C144.628 91.4884 144.51 92.2594 144.421 93.0313C144.374 93.4194 144.337 93.8074 144.303 94.1924C144.223 95.1386 144.182 96.0856 144.181 97.0337C144.175 99.8777 144.52 102.712 145.207 105.471C145.359 106.079 145.527 106.685 145.712 107.287C145.805 107.588 145.904 107.886 146.003 108.184C146.254 108.929 146.531 109.667 146.836 110.398C147.019 110.835 147.21 111.27 147.412 111.702C148.691 114.445 150.323 117.008 152.267 119.326C152.586 119.708 152.915 120.084 153.255 120.453C153.258 120.453 153.255 120.456 153.255 120.456C154.098 121.378 154.99 122.252 155.927 123.076H155.93C156.305 123.408 156.686 123.73 157.073 124.042C157.076 124.039 157.076 124.042 157.076 124.042C157.466 124.358 157.859 124.663 158.262 124.958C158.463 125.104 158.668 125.249 158.875 125.395C159.281 125.684 159.695 125.962 160.117 126.23H160.12C160.541 126.504 160.968 126.764 161.402 127.013C162.272 127.513 163.164 127.981 164.08 128.407L164.235 128.478L164.393 128.407C165.863 127.744 167.378 127.187 168.926 126.74C169.267 126.64 169.611 126.55 169.951 126.463C170.812 126.249 171.679 126.069 172.552 125.923C171.701 126.351 170.88 126.835 170.094 127.373C169.484 127.786 168.883 128.236 168.279 128.733C168.078 128.897 167.877 129.068 167.675 129.242L167.174 129.676L167.802 129.884C168.031 129.959 168.26 130.033 168.49 130.102C168.802 130.201 169.112 130.291 169.415 130.375C170.078 130.561 170.745 130.726 171.416 130.869C171.58 130.903 171.741 130.937 171.905 130.971C172.224 131.033 172.546 131.095 172.868 131.151C172.881 131.154 172.895 131.156 172.908 131.157C173.243 131.213 173.58 131.266 173.915 131.312C174.537 131.402 175.159 131.474 175.782 131.527C175.85 131.536 175.918 131.539 175.989 131.542C176.141 131.555 176.29 131.567 176.441 131.576C176.776 131.598 177.113 131.614 177.451 131.626C177.476 131.626 177.497 131.629 177.522 131.629C177.692 131.635 177.863 131.642 178.033 131.645C178.033 131.645 178.033 131.648 178.036 131.645C178.206 131.648 178.377 131.651 178.547 131.651H179.488C179.665 131.651 179.841 131.654 180.021 131.654C180.269 131.654 180.52 131.657 180.767 131.66C180.832 131.66 180.9 131.663 180.969 131.663C181.365 131.669 181.761 131.679 182.158 131.688C182.182 131.688 182.207 131.691 182.232 131.691C182.628 131.704 183.025 131.716 183.421 131.735C183.508 131.738 183.594 131.741 183.684 131.747C184.065 131.763 184.446 131.781 184.827 131.803C184.935 131.809 185.047 131.818 185.158 131.825C185.446 131.84 185.737 131.859 186.025 131.881C186.195 131.89 186.363 131.902 186.533 131.918C187.22 131.971 187.905 132.03 188.592 132.098C188.821 132.116 189.05 132.141 189.28 132.166C189.893 132.231 190.508 132.303 191.125 132.38C191.401 132.411 191.676 132.449 191.952 132.486C191.983 132.489 192.014 132.492 192.045 132.498C192.385 132.545 192.723 132.591 193.063 132.641C193.286 132.672 193.509 132.706 193.732 132.74C193.961 132.775 194.191 132.809 194.42 132.849C194.544 132.868 194.667 132.889 194.794 132.911C195.092 132.958 195.392 133.007 195.692 133.063C195.719 133.066 195.746 133.07 195.773 133.076C196.411 133.188 197.052 133.305 197.69 133.433C198.064 133.504 198.436 133.579 198.807 133.656C199.099 133.715 199.39 133.777 199.681 133.839C199.73 133.849 199.78 133.861 199.829 133.874C199.84 133.877 199.852 133.879 199.863 133.88C200.303 133.976 200.746 134.075 201.186 134.181C202.712 134.535 204.237 134.928 205.759 135.361C206.109 135.457 206.459 135.559 206.809 135.662C206.957 135.705 207.103 135.749 207.248 135.792C207.552 135.882 207.852 135.972 208.156 136.068C208.422 136.149 208.691 136.233 208.958 136.32C209.125 136.373 209.292 136.425 209.459 136.481C209.719 136.562 209.98 136.646 210.237 136.736C210.456 136.804 210.673 136.876 210.89 136.953C211.2 137.056 211.512 137.161 211.822 137.273C211.912 137.304 212.005 137.335 212.095 137.369C212.472 137.5 212.85 137.633 213.228 137.773C213.596 137.906 213.965 138.043 214.33 138.179C214.584 138.276 214.838 138.369 215.089 138.468C215.371 138.577 215.652 138.686 215.931 138.797C216.334 138.956 216.739 139.117 217.142 139.282C217.513 139.431 217.882 139.583 218.253 139.741C218.322 139.769 218.393 139.797 218.461 139.828C218.783 139.961 219.105 140.101 219.424 140.241C219.631 140.328 219.836 140.418 220.04 140.508C220.932 140.899 221.823 141.304 222.712 141.722H222.715C223.273 141.986 223.84 142.237 224.409 142.476C224.542 142.532 224.676 142.588 224.812 142.641C225.038 142.737 225.267 142.827 225.496 142.92C225.645 142.979 225.793 143.038 225.945 143.094C226.165 143.181 226.388 143.265 226.611 143.345C226.846 143.432 227.078 143.519 227.317 143.6C227.401 143.631 227.484 143.659 227.571 143.69C227.846 143.783 228.122 143.876 228.401 143.966C228.429 143.976 228.456 143.985 228.487 143.994C228.778 144.087 229.07 144.18 229.364 144.267C229.387 144.276 229.411 144.283 229.435 144.289C229.751 144.385 230.073 144.478 230.392 144.568C230.862 144.699 231.336 144.823 231.81 144.938C231.897 144.96 231.983 144.981 232.07 145C232.324 145.062 232.575 145.121 232.829 145.177C233.098 145.239 233.371 145.295 233.64 145.351C233.912 145.407 234.185 145.463 234.454 145.512C234.6 145.54 234.745 145.568 234.888 145.593L235.269 145.658C235.532 145.705 235.795 145.745 236.061 145.789C236.069 145.788 236.076 145.789 236.083 145.792C236.383 145.838 236.681 145.882 236.981 145.919C237.269 145.959 237.557 145.993 237.845 146.028C237.904 146.034 237.966 146.04 238.028 146.046C238.266 146.074 238.505 146.102 238.743 146.124C238.811 146.13 238.879 146.136 238.947 146.142C239.183 146.164 239.418 146.186 239.653 146.201C239.701 146.208 239.748 146.211 239.796 146.211C240.006 146.229 240.217 146.245 240.427 146.254C240.576 146.267 240.722 146.273 240.87 146.282C240.948 146.285 241.022 146.288 241.099 146.291C241.304 146.304 241.508 146.31 241.716 146.316C241.966 146.326 242.217 146.332 242.465 146.338C242.765 146.344 243.069 146.347 243.369 146.347H243.375C243.67 146.347 243.967 146.344 244.261 146.338H244.372L244.698 146.329C244.865 146.326 245.032 146.319 245.196 146.313C245.512 146.301 245.825 146.285 246.137 146.267C246.261 146.26 246.388 146.251 246.512 146.245C246.568 146.242 246.627 146.236 246.682 146.232C246.878 146.22 247.07 146.208 247.265 146.192C247.466 146.177 247.67 146.158 247.872 146.136C248.132 146.111 248.392 146.083 248.652 146.056C248.856 146.034 249.061 146.009 249.262 145.984C249.289 145.982 249.316 145.978 249.342 145.972C249.537 145.95 249.732 145.925 249.924 145.897C250.154 145.866 250.38 145.832 250.606 145.798C250.63 145.795 250.652 145.792 250.677 145.789C251.067 145.726 251.46 145.664 251.854 145.593C252.265 145.518 252.677 145.438 253.086 145.354C253.238 145.323 253.386 145.289 253.538 145.258C253.622 145.239 253.708 145.224 253.789 145.205C253.916 145.177 254.04 145.149 254.164 145.118C254.185 145.115 254.21 145.109 254.232 145.106C254.405 145.068 254.575 145.025 254.749 144.981C255.096 144.898 255.436 144.811 255.777 144.718C255.929 144.68 256.08 144.64 256.226 144.6C256.269 144.587 256.313 144.575 256.353 144.562C256.981 144.385 257.605 144.198 258.223 144C258.496 143.913 258.765 143.823 259.034 143.727C259.613 143.529 260.187 143.319 260.756 143.1C260.908 143.044 261.06 142.982 261.211 142.923C261.434 142.833 261.657 142.743 261.877 142.653C262.075 142.569 262.273 142.485 262.475 142.398C262.574 142.358 262.673 142.315 262.772 142.271C263.069 142.141 263.366 142.007 263.661 141.874C263.859 141.781 264.054 141.691 264.249 141.598C264.559 141.449 264.865 141.296 265.172 141.144C265.249 141.104 265.323 141.064 265.398 141.026C265.593 140.927 265.788 140.825 265.986 140.725C266.299 140.558 266.612 140.39 266.921 140.216C267.026 140.16 267.129 140.101 267.234 140.042C267.575 139.85 267.912 139.654 268.246 139.455C268.987 139.012 269.716 138.548 270.436 138.065C270.615 137.947 270.795 137.823 270.971 137.701C271.306 137.472 271.634 137.236 271.962 137C271.996 136.975 272.027 136.95 272.061 136.928C272.225 136.807 272.39 136.686 272.554 136.562C272.894 136.304 273.232 136.044 273.569 135.777C273.576 135.774 273.585 135.764 273.594 135.758C273.746 135.637 273.898 135.516 274.046 135.395C274.508 135.019 274.963 134.637 275.409 134.243C275.629 134.054 275.845 133.858 276.059 133.663C276.22 133.517 276.381 133.371 276.539 133.222C276.858 132.921 277.171 132.623 277.48 132.318C277.635 132.169 277.787 132.014 277.942 131.859C278.093 131.704 278.248 131.548 278.4 131.39C278.452 131.337 278.505 131.281 278.558 131.226C278.713 131.061 278.867 130.893 279.022 130.729C279.155 130.586 279.285 130.437 279.419 130.288C279.642 130.04 279.868 129.791 280.087 129.54C280.099 129.526 280.111 129.512 280.125 129.499C280.137 129.484 280.149 129.472 280.159 129.459H280.156C284.656 124.241 288.001 118.124 289.967 111.513C291.933 104.902 292.477 97.9478 291.561 91.1105C290.646 84.2732 288.293 77.7087 284.657 71.8515C281.022 65.9944 276.187 60.978 270.473 57.1345Z" fill="url(#paint5_linear_399_468)"/>
<g opacity="0.15">
<path d="M207.797 20.4994C208.415 22.7223 209.343 24.8462 210.555 26.8076C208.526 25.0597 206.713 23.0743 205.154 20.8939C206.03 20.7279 206.911 20.5964 207.797 20.4994Z" fill="black"/>
<path d="M177.582 54.8773C175.291 56.1313 173.148 57.6414 171.195 59.3788C174.492 55.4696 176.902 50.8882 178.258 45.9522C178.274 45.8929 178.291 45.8332 178.306 45.7738L178.353 45.6058C179.981 39.7147 183.142 34.3629 187.51 30.098L187.854 29.7625L188.096 30.1771C189.435 32.46 191.038 34.577 192.87 36.4843C190.062 44.4298 184.597 51.0427 177.582 54.8773Z" fill="black"/>
<path d="M193.724 33.7312L193.678 33.8992C193.662 33.9586 193.645 34.0183 193.629 34.0776C193.539 34.4043 193.442 34.7285 193.343 35.0513C192.364 32.5076 191.676 29.8605 191.293 27.161L191.257 26.9319L191.445 26.7973C193.801 25.0998 196.36 23.705 199.062 22.6456C196.636 25.9911 194.828 29.7457 193.724 33.7312Z" fill="black"/>
<path d="M162.211 66.7519C164.239 65.6389 166.138 64.3029 167.871 62.7687C164.408 66.8102 161.927 71.6008 160.62 76.7648C159.313 81.9289 159.216 87.3262 160.338 92.5339C161.46 97.7416 163.769 102.618 167.085 106.781C170.4 110.945 174.633 114.282 179.45 116.531L179.607 116.603L179.763 116.533C182.365 115.354 185.108 114.519 187.925 114.048C186.167 114.945 184.528 116.061 183.047 117.367L182.546 117.802L183.175 118.01C183.717 118.19 184.26 118.355 184.787 118.502C187.886 119.367 191.09 119.797 194.307 119.779C208.923 119.685 223.652 123.073 238.086 129.848C240.561 131.008 243.129 131.959 245.761 132.692C257.235 135.895 269.485 134.743 280.164 129.456C274.143 136.438 266.27 141.563 257.46 144.238C248.649 146.913 239.263 147.027 230.39 144.567C227.757 143.834 225.19 142.883 222.714 141.722C208.281 134.947 193.552 131.56 178.936 131.653C175.719 131.672 172.515 131.242 169.416 130.376C168.889 130.23 168.346 130.064 167.804 129.884L167.175 129.676L167.676 129.242C169.157 127.935 170.795 126.82 172.553 125.922C169.737 126.393 166.994 127.229 164.392 128.407L164.235 128.478L164.079 128.405C158.294 125.706 153.371 121.448 149.859 116.106C146.348 110.765 144.385 104.55 144.192 98.1557C143.998 91.7614 145.58 85.4388 148.762 79.8935C151.944 74.3482 156.6 69.7985 162.211 66.7519Z" fill="black"/>
</g>
</g>
<defs>
<linearGradient id="paint0_linear_399_468" x1="82.367" y1="27.4399" x2="108.351" y2="296.843" gradientUnits="userSpaceOnUse">
<stop stop-color="#F48A0E"/>
<stop offset="1" stop-color="#F40ECF" stop-opacity="0.78"/>
</linearGradient>
<linearGradient id="paint1_linear_399_468" x1="154.205" y1="27.4399" x2="180.19" y2="296.843" gradientUnits="userSpaceOnUse">
<stop stop-color="#F48A0E"/>
<stop offset="1" stop-color="#F40ECF" stop-opacity="0.78"/>
</linearGradient>
<linearGradient id="paint2_linear_399_468" x1="82.2354" y1="144.423" x2="125.7" y2="144.423" gradientUnits="userSpaceOnUse">
<stop stop-color="#D807FA" stop-opacity="0.76"/>
<stop offset="1" stop-color="#FF0CBB"/>
</linearGradient>
<linearGradient id="paint3_linear_399_468" x1="74.8184" y1="175.337" x2="102.14" y2="175.337" gradientUnits="userSpaceOnUse">
<stop stop-color="#D807FA" stop-opacity="0.76"/>
<stop offset="1" stop-color="#FF0CBB"/>
</linearGradient>
<linearGradient id="paint4_linear_399_468" x1="72.1978" y1="171.942" x2="108.857" y2="171.942" gradientUnits="userSpaceOnUse">
<stop stop-color="#D807FA" stop-opacity="0.76"/>
<stop offset="1" stop-color="#FF0CBB"/>
</linearGradient>
<linearGradient id="paint5_linear_399_468" x1="218.087" y1="20.2995" x2="218.087" y2="146.347" gradientUnits="userSpaceOnUse">
<stop stop-color="#FF5DEF"/>
<stop offset="1" stop-color="#B952F7" stop-opacity="0.41"/>
</linearGradient>
<clipPath id="clip0_399_468">
<rect width="292" height="247" fill="white"/>
</clipPath>
</defs>
</svg>
