<svg xmlns="http://www.w3.org/2000/svg" width="70" height="70" viewBox="0 0 70 70" fill="none">
  <g clip-path="url(#clip0_1_2534)">
    <path d="M11.6666 32.0792H8.74996M61.25 32.0792H58.3333M35 17.4958V23.3292M30.625 23.3292H39.375M17.5 52.4958H26.25M43.75 52.4958H52.5M45.2375 17H24.7625C17.5 17 15.8958 20.6167 14.9625 25.05L11.6666 40.8292H58.3333L55.0375 25.05C54.1041 20.6167 52.5 17 45.2375 17ZM64.1375 66.5542C64.4583 69.9667 61.7166 72.9125 58.2166 72.9125H52.7333C49.5833 72.9125 49.1458 71.5708 48.5916 69.9083L48.0083 68.1583C47.1916 65.7667 46.6666 64.1625 42.4666 64.1625H27.5333C23.3333 64.1625 22.7208 65.9708 21.9916 68.1583L21.4083 69.9083C20.8541 71.5708 20.4166 72.9125 17.2666 72.9125H11.7833C8.2833 72.9125 5.54163 69.9667 5.86246 66.5542L7.4958 48.7917C7.90413 44.4167 8.74996 40.8292 16.3916 40.8292H53.6083C61.25 40.8292 62.0958 44.4167 62.5041 48.7917L64.1375 66.5542Z" stroke="black" stroke-width="5" stroke-linecap="round" stroke-linejoin="round"/>
  </g>
  <defs>
    <clipPath id="clip0_1_2534">
      <rect width="70" height="70" fill="white"/>
    </clipPath>
  </defs>
</svg>