<svg xmlns="http://www.w3.org/2000/svg" width="70" height="70" viewBox="0 0 70 70" fill="none">
  <path d="M16.0418 11.6667V6.5625M27.7085 11.6667V6.5625M39.3752 11.6667V6.5625M5.8335 35H51.071M51.8877 30.5375V51.8875C51.8877 55.1441 50.594 58.2674 48.2912 60.5702C45.9884 62.873 42.8651 64.1667 39.6085 64.1667H18.1127C11.346 64.1667 5.8335 58.6542 5.8335 51.8875V30.5375C5.8335 27.2809 7.12719 24.1576 9.42998 21.8548C11.7328 19.552 14.856 18.2583 18.1127 18.2583H39.6085C46.3752 18.2583 51.8877 23.7708 51.8877 30.5375ZM64.1668 38.3833C64.1668 45.15 58.6543 50.6625 51.8877 50.6625V26.1042C53.5002 26.1042 55.0969 26.4218 56.5867 27.0389C58.0765 27.6559 59.4301 28.5604 60.5703 29.7007C61.7106 30.8409 62.615 32.1945 63.2321 33.6843C63.8492 35.1741 64.1668 36.7708 64.1668 38.3833Z" stroke="black" stroke-width="4" stroke-linecap="round" stroke-linejoin="round"/>
</svg>