<svg xmlns="http://www.w3.org/2000/svg" width="70" height="70" viewBox="0 0 70 70" fill="none">
  <path d="M27.9124 36.3417L19.0166 45.2375M19.1041 36.4292L27.9999 45.325" stroke="black" stroke-width="3" stroke-miterlimit="10" stroke-linecap="round" stroke-linejoin="round"/>
  <path d="M39.4624 40.8333H39.4916M50.9541 40.8333H50.9832M45.2082 46.6083V46.55M45.2082 35.1167V35.0583" stroke="black" stroke-width="3" stroke-miterlimit="10" stroke-linecap="round" stroke-linejoin="round"/>
  <path d="M37.946 5.83337L37.9168 8.77921C37.9091 9.54769 37.5985 10.2821 37.0523 10.8228C36.5062 11.3635 35.7687 11.6667 35.0002 11.6667H34.9127C33.3085 11.6667 32.0252 12.9792 32.0252 14.5834C32.0252 16.1875 33.3377 17.5 34.9418 17.5H37.8585M26.2502 64.1667H43.7502C58.3335 64.1667 64.1668 58.3334 64.1668 43.75V37.9167C64.1668 23.3334 58.3335 17.5 43.7502 17.5H26.2502C11.6668 17.5 5.8335 23.3334 5.8335 37.9167V43.75C5.8335 58.3334 11.6668 64.1667 26.2502 64.1667Z" stroke="black" stroke-width="3" stroke-linecap="round" stroke-linejoin="round"/>
</svg>